<?xml version="1.0" encoding="UTF-8"?>
<svg width="25px" height="17px" viewBox="0 0 25 17" version="1.1" xmlns="http://www.w3.org/2000/svg" xmlns:xlink="http://www.w3.org/1999/xlink">
    <!-- Generator: Sketch 49.1 (51147) - http://www.bohemiancoding.com/sketch -->
    <title>enviar mail</title>
    <desc>Created with Sketch.</desc>
    <defs></defs>
    <g id="ejecutivo" stroke="none" stroke-width="1" fill="none" fill-rule="evenodd">
        <g id="004-ficha-paciente-5" transform="translate(-1189.000000, -217.000000)" fill="#0079C8">
            <g id="enviar-mail" transform="translate(1189.000000, 217.000000)">
                <path d="M22.4455556,2.68638889 L22.5668519,2.85027778 L22.5677778,2.84935185 L22.4455556,2.68638889 Z M12.1631481,11.1373148 C12.0492593,11.1373148 11.9427778,11.1021296 11.8538889,11.035463 L1.47611111,3.32898148 C1.365,3.2475 1.29277778,3.12712963 1.27240741,2.99009259 C1.25111111,2.85305556 1.2862963,2.71509259 1.36962963,2.60305556 C1.45018519,2.4937963 1.57148148,2.42157407 1.70851852,2.40027778 C1.85111111,2.38083333 1.98351852,2.41509259 2.09462963,2.4975 L12.1631481,9.97342593 L22.2798148,2.46324074 C22.2798148,2.46324074 22.2807407,2.46231481 22.2816667,2.46231481 C22.5122222,2.29287037 22.8372222,2.34194444 23.0048148,2.57157407 C23.0872222,2.68083333 23.1214815,2.81787037 23.102037,2.95490741 C23.0816667,3.09194444 23.0094444,3.21231481 22.8983333,3.29564815 L12.4714815,11.0363889 C12.3835185,11.1012037 12.2742593,11.1373148 12.1631481,11.1373148 Z" id="Fill-1"></path>
                <g id="Group-5" transform="translate(0.000000, 0.792963)">
                    <path d="M15.8257407,14.5399074 L23.1766667,14.5399074 C23.2646296,14.5399074 23.3368519,14.4676852 23.3368519,14.3797222 L23.3368519,1.3287963 C23.3368519,1.24175926 23.2646296,1.16953704 23.1766667,1.16953704 L1.19703704,1.16953704 C1.10907407,1.16953704 1.03685185,1.24175926 1.03685185,1.3287963 L1.03685185,14.3797222 C1.03685185,14.4676852 1.10907407,14.5399074 1.19703704,14.5399074 L8.49518519,14.5399074 L15.8257407,14.5399074 Z M9.5312963,15.5760185 L1.19703704,15.5760185 C0.536851852,15.5760185 -0.000185185185,15.0399074 -0.000185185185,14.3797222 L-0.000185185185,1.3287963 C-0.000185185185,0.669537037 0.536851852,0.1325 1.19703704,0.1325 L23.1766667,0.1325 C23.8368519,0.1325 24.3738889,0.669537037 24.3738889,1.3287963 L24.3738889,14.3797222 C24.3738889,15.0399074 23.8368519,15.5760185 23.1766667,15.5760185 L14.7887037,15.5760185 L9.5312963,15.5760185 Z" id="Fill-3"></path>
                </g>
            </g>
        </g>
    </g>
</svg>