<?xml version="1.0" encoding="UTF-8"?>
<svg width="26px" height="27px" viewBox="0 0 26 27" version="1.1" xmlns="http://www.w3.org/2000/svg" xmlns:xlink="http://www.w3.org/1999/xlink">
    <!-- Generator: Sketch 49.1 (51147) - http://www.bohemiancoding.com/sketch -->
    <title>Group 2</title>
    <desc>Created with Sketch.</desc>
    <defs></defs>
    <g id="ejecutivo" stroke="none" stroke-width="1" fill="none" fill-rule="evenodd">
        <g id="004-ficha-paciente-1" transform="translate(-15.000000, -664.000000)" fill="#FFFFFF">
            <g id="Group-2" transform="translate(15.000000, 664.000000)">
                <path d="M1.6614,11.963575 L4.05448333,11.963575 C4.39898333,11.963575 4.7034,11.7436583 4.81281667,11.417575 L5.61015,9.02340833 C5.70548333,8.736325 5.63181667,8.41999167 5.41731667,8.20765833 L3.58756667,6.37790833 L5.65131667,4.31415833 L7.48106667,6.14390833 C7.6934,6.357325 8.01081667,6.432075 8.29681667,6.337825 L10.6909833,5.538325 C11.0170667,5.431075 11.2359,5.125575 11.2359,4.78215833 L11.2359,2.38799167 L14.4284833,2.38799167 L14.4284833,4.78215833 C14.4284833,5.125575 14.6473167,5.431075 14.9734,5.538325 L17.3675667,6.337825 C17.65465,6.43315833 17.9699,6.357325 18.1833167,6.14390833 L20.0130667,4.31415833 L22.0768167,6.37790833 L20.2470667,8.20765833 C20.03365,8.41999167 19.9589,8.736325 20.0553167,9.02340833 L20.85265,11.417575 C20.9609833,11.7436583 21.2654,11.963575 21.6088167,11.963575 L24.0029833,11.963575 L24.0029833,15.155075 L21.6088167,15.155075 C21.2654,15.155075 20.9609833,15.3739083 20.85265,15.6999917 L20.0553167,18.0941583 C19.9589,18.3812417 20.03365,18.697575 20.2470667,18.9109917 L22.0768167,20.7407417 L20.0130667,22.8034083 L18.1833167,20.9736583 C17.9699,20.7602417 17.6535667,20.6854917 17.3675667,20.7819083 L14.9734,21.5792417 C14.6473167,21.6886583 14.4284833,21.993075 14.4284833,22.3354083 L14.4284833,24.729575 L11.2359,24.729575 L11.2359,22.3354083 C11.2359,21.993075 11.0170667,21.6886583 10.6909833,21.5792417 L8.29681667,20.7819083 C8.01081667,20.6854917 7.69448333,20.7602417 7.48106667,20.9736583 L5.65131667,22.8034083 L3.58756667,20.7407417 L5.41731667,18.9109917 C5.63181667,18.697575 5.70548333,18.3812417 5.61015,18.0941583 L4.81281667,15.6999917 C4.7034,15.3739083 4.39898333,15.155075 4.05448333,15.155075 L1.6614,15.155075 L1.6614,11.963575 Z M0.864066667,16.750825 L3.48031667,16.750825 L3.94073333,18.1309917 L1.8954,20.176325 C1.5834,20.4872417 1.5834,20.9931583 1.8954,21.304075 L5.0869,24.495575 C5.3989,24.807575 5.90481667,24.807575 6.21573333,24.495575 L8.25998333,22.451325 L9.64015,22.9106583 L9.64015,25.5279917 C9.64015,25.9689083 9.99765,26.325325 10.4385667,26.325325 L15.2258167,26.325325 C15.6667333,26.325325 16.0242333,25.9689083 16.0242333,25.5279917 L16.0242333,22.9106583 L17.4044,22.451325 L19.44865,24.495575 C19.76065,24.807575 20.2665667,24.807575 20.5774833,24.495575 L23.7689833,21.304075 C24.0809833,20.9931583 24.0809833,20.4872417 23.7689833,20.176325 L21.7247333,18.1309917 L22.1840667,16.750825 L24.8003167,16.750825 C25.2423167,16.750825 25.5987333,16.393325 25.5987333,15.9534917 L25.5987333,11.1662417 C25.5987333,10.7242417 25.2423167,10.3667417 24.8003167,10.3667417 L22.1840667,10.3667417 L21.7247333,8.98765833 L23.7689833,6.94124167 C24.0809833,6.630325 24.0809833,6.12549167 23.7689833,5.81349167 L20.5774833,2.62199167 C20.2665667,2.311075 19.76065,2.311075 19.44865,2.62199167 L17.4044,4.667325 L16.0242333,4.20690833 L16.0242333,1.59065833 C16.0242333,1.150825 15.6667333,0.792241667 15.2258167,0.792241667 L10.4385667,0.792241667 C9.99765,0.792241667 9.64015,1.150825 9.64015,1.59065833 L9.64015,4.20690833 L8.25998333,4.667325 L6.21573333,2.62199167 C5.90481667,2.311075 5.3989,2.311075 5.0869,2.62199167 L1.8954,5.81349167 C1.5834,6.12549167 1.5834,6.630325 1.8954,6.94124167 L3.94073333,8.98765833 L3.48031667,10.3667417 L0.864066667,10.3667417 C0.42315,10.3667417 0.06565,10.7242417 0.06565,11.1662417 L0.06565,15.9534917 C0.06565,16.393325 0.42315,16.750825 0.864066667,16.750825 Z" id="Fill-364"></path>
                <path d="M12.8306917,11.963575 C13.709945,11.963575 14.4256918,12.6796583 14.4256918,13.559325 C14.4256918,14.4389917 13.709945,15.155075 12.8306917,15.155075 C11.9514385,15.155075 11.2356917,14.4389917 11.2356917,13.559325 C11.2356917,12.6796583 11.9514385,11.963575 12.8306917,11.963575 M12.8306917,16.750825 C14.590281,16.750825 16.0206918,15.3197417 16.0206918,13.559325 C16.0206918,11.7999917 14.590281,10.3667417 12.8306917,10.3667417 C11.0721852,10.3667417 9.64069167,11.7999917 9.64069167,13.559325 C9.64069167,15.3197417 11.0721852,16.750825 12.8306917,16.750825" id="Fill-365"></path>
            </g>
        </g>
    </g>
</svg>