<?xml version="1.0" encoding="UTF-8" standalone="no"?>
<svg width="19px" height="20px" viewBox="0 0 19 20" version="1.1" xmlns="http://www.w3.org/2000/svg" xmlns:xlink="http://www.w3.org/1999/xlink">
    <!-- Generator: Sketch 46.2 (44496) - http://www.bohemiancoding.com/sketch -->
    <title>Mask</title>
    <desc>Created with Sketch.</desc>
    <defs>
        <path d="M15.3277887,15.2418664 C15.1890257,15.0681001 14.7358582,14.6149326 14.0032895,14.6149326 C13.8295232,14.6149326 13.6201286,14.6149326 13.4463623,14.6855643 L11.8424619,15.173735 C11.3892944,14.6168078 10.4829595,13.3960684 9.92603225,12.4897334 C9.92603225,12.4547301 9.89102897,12.4547301 9.89102897,12.4191018 C9.89102897,12.3834735 9.85602568,12.3840985 9.85602568,12.3484702 C9.22909191,11.4771385 8.53152651,10.117636 8.21899721,9.49070225 L9.33410175,8.2368347 C9.99603881,7.50426602 9.85540063,6.70356596 9.64663105,6.32040504 L8.32213188,2.94133825 C7.9745993,2.13876301 7.34516529,2.03500328 7.13827089,2 C7.10326761,2 7.03451117,2 6.99950789,2 C6.30006731,2 4.87243347,2.80070007 4.31363108,3.15073288 C3.12789492,3.81266994 3.02413519,4.68400163 3.02413519,4.92839954 C2.81536562,7.61052599 3.96547345,10.9208363 6.30006731,14.544301 C6.37007388,14.6149326 6.40382704,14.6480608 6.40382704,14.683064 C6.43883032,14.683064 6.43883032,14.7180673 6.43883032,14.7180673 C6.4738336,14.7530706 6.50883689,14.8237022 6.57759333,14.9268369 C8.91156214,18.5853049 11.3867942,20.9192737 13.859526,21.861237 C13.9632857,21.9318686 14.2070586,22 14.5214631,22 L14.5214631,22 C14.8689957,22 15.3927948,21.8962403 15.9490969,21.4430728 C16.8554319,20.8511423 17.9705364,19.9798106 18.1799311,19.3528768 C18.3186941,19.0384724 18.3536973,18.4465419 17.8323985,17.8546114 L15.3265385,15.2412414 L15.3277887,15.2418664 Z M17.1054553,18.970966 C17.0016956,19.1797356 16.1659922,19.877301 15.3277887,20.4692315 C14.9446277,20.7136294 14.7008549,20.7817608 14.5270886,20.7817608 C14.456457,20.7817608 14.3883256,20.7817608 14.3883256,20.7817608 L14.3883256,20.7798856 C14.3533223,20.7448823 14.3883256,20.7448823 14.3533223,20.7798856 C12.8200536,20.1879551 10.4154531,18.6196831 7.66332012,14.298653 C7.5926885,14.1930181 7.52455711,14.0898834 7.48955383,14.0542551 C7.45455055,14.0186267 7.41892221,13.9486202 7.38391892,13.8804888 C5.18808807,10.5364253 4.07298352,7.40113136 4.24674981,5.03215926 C4.24674981,4.9621527 4.24674981,4.99715598 4.24674981,4.9621527 C4.24674981,4.9621527 4.24674981,4.57961684 4.90868687,4.2314592 C5.74501528,3.71016033 6.75636009,3.25699284 6.96575472,3.25699284 C7.000758,3.25699284 7.000758,3.25699284 7.03576128,3.25699284 C7.07076457,3.25699284 7.13952101,3.29199612 7.20952758,3.43075913 L8.53215157,6.84545426 C8.53215157,6.84545426 8.56715485,6.88045754 8.56715485,6.91546082 C8.56715485,6.91546082 8.70591786,7.15985874 8.42839184,7.47238804 L7.03388611,9.04066006 C6.86011982,9.21442635 6.82511654,9.49382755 6.93012638,9.70259712 C6.96512966,9.80635685 7.97522436,11.8627996 8.84655605,13.1172922 C9.64725611,14.4417914 11.0773902,16.218833 11.1473968,16.2875895 C11.321163,16.496359 11.565561,16.5669907 11.8093338,16.496359 L13.8307733,15.9044285 C13.9014049,15.8694253 13.9695363,15.8694253 14.0395429,15.8694253 C14.2483125,15.8694253 14.3870755,16.0081883 14.3870755,16.0081883 C14.4220788,16.0431915 14.4220788,16.0431915 14.4577071,16.0788199 L17.0010705,18.6921899 C17.1048303,18.8309529 17.1048303,18.9009595 17.1048303,18.9365878 L17.1048303,18.9715911 L17.1054553,18.970966 Z M17.36923,11.7396631 C17.326101,11.7396631 17.2810968,11.7359127 17.2367176,11.727787 C17.0473249,11.6946589 16.9066867,11.6065256 16.8048021,11.4621371 C16.7654234,11.4015064 16.7091682,11.2764947 16.6854159,11.0383473 C16.6910415,10.7964497 16.6616637,10.4620433 16.5954075,10.0382536 C16.5291513,9.61821421 16.3216318,9.1594212 15.9665986,8.63562209 C15.6053147,8.11994875 15.2477812,7.77054099 14.8708708,7.56489671 C14.4645827,7.34987655 14.1833064,7.21548895 13.9545349,7.12360534 C13.7551412,7.03547208 13.6695082,6.94421352 13.6345049,6.88358284 C13.5169939,6.71919242 13.4801154,6.55542707 13.5169939,6.37353502 C13.5538724,6.1941432 13.6438808,6.05100478 13.7963951,5.93786918 C13.8764026,5.87911367 13.9939136,5.84973591 14.1420525,5.84973591 C14.22206,5.84973591 14.3101933,5.85786167 14.4077024,5.87536332 C14.8839971,6.0416289 15.3552912,6.28915211 15.8240852,6.62543363 C16.2853784,6.96921586 16.6854159,7.38738007 17.0116965,7.86992531 C17.3767308,8.35809607 17.6405055,8.88564553 17.8005205,9.44632309 C17.9586603,10.0070007 18.0292919,10.5558021 18.0092901,11.0733506 C17.9624107,11.333375 17.8686519,11.5283933 17.7336392,11.632153 C17.624254,11.7002844 17.5011174,11.7396631 17.368605,11.7396631 L17.36923,11.7396631 Z M20.1838689,13.0329093 C20.1407399,13.0329093 20.0982359,13.029159 20.0532317,13.0210332 C19.8657141,12.9879051 19.7288263,12.8997719 19.6388178,12.751633 C19.5313077,12.6072444 19.5081806,12.3884739 19.5606855,12.0915711 C19.6719459,11.7690408 19.7325766,11.3902553 19.7444527,10.9583398 C19.7500783,10.5401756 19.7094494,10.1245117 19.619441,9.68509548 C19.5219319,9.24567928 19.3694176,8.79438697 19.1643983,8.34121949 C18.9768808,7.909304 18.7249821,7.46051192 18.3949512,6.96796575 L18.3580728,6.91108541 L18.3461966,6.90921024 C18.0355425,6.46354346 17.7055116,6.07288183 17.3673549,5.7472263 C17.0098214,5.4015689 16.6385365,5.10279089 16.2616262,4.8565178 C15.8709646,4.60649436 15.4859285,4.42272713 15.1152687,4.30584117 C14.7146062,4.18082945 14.3514471,4.12019877 14.0039145,4.12019877 C13.6426307,4.05394256 13.4901164,3.93643154 13.4313609,3.85079851 C13.3182253,3.69453386 13.2825969,3.53014345 13.3138499,3.34512611 C13.346978,3.16323405 13.4388616,3.02072069 13.5951262,2.91133544 C13.6657578,2.85695534 13.8001454,2.79382442 14.0739211,2.77257243 C14.3745743,2.77819796 14.7383584,2.83132794 15.1421463,2.93071225 C15.5584353,3.0282214 16.0172283,3.2063631 16.5097745,3.46201206 C17.0079462,3.72016127 17.4998673,4.05956808 18.0136655,4.50523487 C18.5293388,4.94840141 19.0312609,5.51907991 19.5038052,6.20289402 C19.9882256,6.8885833 20.3495094,7.55677095 20.5801561,8.1855799 C20.8089275,8.82063943 20.9608168,9.42194581 21.0314484,9.97074726 C21.0958294,10.5157984 21.10208,11.0095946 21.0508252,11.4377598 C20.9964451,11.8928025 20.9258135,12.2465856 20.835805,12.5197362 C20.7145437,12.7797606 20.6089088,12.8735194 20.558279,12.9066475 C20.4351425,12.9947808 20.3163813,13.0335344 20.1832439,13.0335344 L20.1838689,13.0329093 Z M12.9819437,9.37444135 L12.9813187,9.3738163 C12.8744337,9.3269369 12.7963013,9.26880645 12.7569226,9.19629965 C12.6806655,9.08878957 12.6550381,8.97127856 12.6806655,8.84439166 C12.7056678,8.72125512 12.7681737,8.6218708 12.8738086,8.54373848 C12.9656922,8.47748226 13.1044552,8.45998062 13.2900976,8.49310873 C13.5794998,8.59249305 13.858901,8.73875676 14.1301764,8.9344001 C14.3958263,9.13191862 14.6302233,9.37194112 14.8258666,9.66321843 C15.0383865,9.94824515 15.1909008,10.2570241 15.2846596,10.5833047 C15.3765432,10.9133356 15.4177971,11.2296153 15.405921,11.5346439 C15.3746681,11.7202863 15.3084118,11.8471732 15.2165282,11.91968 C15.1065179,11.9921868 14.9877568,12.0134388 14.8646202,11.9921868 C14.7377333,11.9684345 14.6345987,11.9084289 14.5620919,11.8046692 C14.5195879,11.7402882 14.4902101,11.6446542 14.478334,11.5233928 C14.4820844,11.3771291 14.4645827,11.1896115 14.4277043,10.9608401 C14.3908258,10.7320686 14.2733148,10.4782948 14.083922,10.2007688 C13.8901539,9.9232428 13.6951356,9.7300997 13.4919916,9.62071444 C13.2907227,9.51507954 13.1207067,9.43132169 12.9819437,9.37444135 Z" id="path-1"></path>
    </defs>
    <g id="Symbols" stroke="none" stroke-width="1" fill="none" fill-rule="evenodd">
        <g id="ico-/-phone" transform="translate(-3.000000, -2.000000)">
            <mask id="mask-2" fill="white">
                <use xlink:href="#path-1"></use>
            </mask>
            <use id="Mask" fill="#0079C8" fill-rule="nonzero" xlink:href="#path-1"></use>
        </g>
    </g>
</svg>