<?xml version="1.0" encoding="UTF-8"?>
<svg width="22px" height="24px" viewBox="0 0 22 24" version="1.1" xmlns="http://www.w3.org/2000/svg" xmlns:xlink="http://www.w3.org/1999/xlink">
    <!-- Generator: Sketch 49.1 (51147) - http://www.bohemiancoding.com/sketch -->
    <title>Group</title>
    <desc>Created with Sketch.</desc>
    <defs></defs>
    <g id="ejecutivo" stroke="none" stroke-width="1" fill="none" fill-rule="evenodd">
        <g id="004-ficha-paciente-1" transform="translate(-17.000000, -713.000000)" fill="#FFFFFF" fill-rule="nonzero">
            <g id="Group" transform="translate(17.000000, 713.000000)">
                <path d="M11,12 C10.4,12 10,11.4924731 10,10.7311828 L10,1.4688172 C10,0.707526882 10.4,0.2 11,0.2 C11.6,0.2 12,0.707526882 12,1.4688172 L12,10.7311828 C12,11.3655914 11.6,12 11,12 Z" id="Shape"></path>
                <path d="M11,23.8 C5.2,23.8 0.5,19.1 0.5,13.3 C0.5,8.8 3.3,4.9 7.6,3.4 C8.1,3.2 8.7,3.5 8.9,4 C9.1,4.5 8.8,5.1 8.3,5.3 C4.9,6.5 2.6,9.7 2.6,13.3 C2.6,18 6.4,21.8 11.1,21.8 C15.8,21.8 19.6,18 19.6,13.3 C19.6,9.7 17.3,6.5 13.9,5.3 C13.4,5.1 13.1,4.5 13.3,4 C13.5,3.5 14.1,3.2 14.6,3.4 C18.8,4.9 21.6,8.9 21.6,13.3 C21.5,19.1 16.8,23.8 11,23.8 Z" id="Shape"></path>
            </g>
        </g>
    </g>
</svg>