<?xml version="1.0" encoding="UTF-8" standalone="no"?>
<svg width="32px" height="32px" viewBox="0 0 32 32" version="1.1" xmlns="http://www.w3.org/2000/svg" xmlns:xlink="http://www.w3.org/1999/xlink">
    <!-- Generator: Sketch 46.2 (44496) - http://www.bohemiancoding.com/sketch -->
    <title>Fill 1</title>
    <desc>Created with Sketch.</desc>
    <defs>
        <path d="M31.2495,19.1325 C30.714,19.1325 29.9635,19.079 29.534,18.9715 C28.9985,18.811 28.5695,18.4355 28.0335,18.0605 C27.7655,17.846 27.5515,17.685 27.283,17.471 C26.9615,17.2565 26.6935,17.1495 26.4255,17.1495 C26.0505,17.1495 25.7285,17.3635 25.3,17.7925 C24.7105,18.382 23.799,19.722 23.424,20.258 C23.424,20.3115 23.37,20.3115 23.3165,20.3115 C23.2095,20.3115 23.2095,20.2045 23.2095,20.151 C23.2095,18.5965 22.9415,10.235 22.781,7.769 C22.727,6.6435 22.352,6 21.8695,6 C21.494,6 20.905,6.536 20.5295,7.93 C19.618,11.5745 17.635,19.722 16.831,23.903 C16.831,24.01 16.67,24.01 16.67,23.903 C16.563,23.4745 16.5095,22.992 16.402,22.6165 C16.1345,21.3305 15.9195,20.258 15.4905,19.615 C15.0085,18.918 14.258,18.8645 13.4005,19.454 C13.186,19.561 13.0255,19.722 12.8105,19.9365 C12.275,20.3655 11.685,20.9015 10.6135,20.9015 L0.268,20.9015 L0,22.295 L10.8815,22.295 C12.007,22.295 13.0255,21.652 13.6145,21.223 C13.9365,21.0085 14.151,20.848 14.3115,20.848 C14.526,20.848 14.6335,21.1155 14.74,21.4375 C14.794,21.598 14.8475,21.866 14.9015,22.134 C15.1155,23.099 15.437,24.5465 15.8125,25.5645 C15.973,26.047 16.241,26.2615 16.563,26.2615 C17.0455,26.2615 17.528,25.7255 17.796,24.814 C18.171,23.635 20.3685,14.1475 21.28,10.1275 C21.3335,9.9665 21.3335,9.8595 21.3335,9.8595 C21.3335,9.806 21.387,9.7525 21.4405,9.7525 C21.494,9.7525 21.548,9.806 21.548,9.8595 C21.6015,13.8795 21.816,20.955 22.137,21.7055 C22.2985,22.134 22.5665,22.295 22.8875,22.295 C23.263,22.295 23.692,21.9735 24.0135,21.5445 C24.1745,21.3305 24.3885,21.0085 24.603,20.687 C25.139,19.883 25.7285,19.0255 25.8895,18.811 C26.1575,18.543 26.4255,18.543 26.8545,18.811 C26.9075,18.8645 27.015,18.918 27.069,18.9715 C27.4975,19.2935 28.3015,19.776 29.159,19.99 C29.749,20.3655 30.499,20.3655 30.9815,20.3655 L31.7855,20.3655 L32,19.079 C31.893,19.079 31.5715,19.1325 31.2495,19.1325" id="path-1"></path>
    </defs>
    <g id="ejecutivo" stroke="none" stroke-width="1" fill="none" fill-rule="evenodd">
        <g id="004-notificación" transform="translate(-945.000000, -555.000000)">
            <g id="Group-8">
                <g id="Group-6" transform="translate(929.000000, 535.000000)">
                    <g id="nOTIFICACIÓN">
                        <g id="Fill-1" transform="translate(16.000000, 20.000000)">
                            <rect id="Rectangle-8" fill="#0079C8" x="0" y="0" width="32" height="32"></rect>
                            <mask id="mask-2" fill="white">
                                <use xlink:href="#path-1"></use>
                            </mask>
                            <use fill="#FFFFFF" xlink:href="#path-1"></use>
                        </g>
                    </g>
                </g>
            </g>
        </g>
    </g>
</svg>