<?xml version="1.0" encoding="UTF-8"?>
<svg width="38px" height="38px" viewBox="0 0 38 38" version="1.1" xmlns="http://www.w3.org/2000/svg" xmlns:xlink="http://www.w3.org/1999/xlink">
    <!-- Generator: Sketch 49.1 (51147) - http://www.bohemiancoding.com/sketch -->
    <title>path-1</title>
    <desc>Created with Sketch.</desc>
    <defs></defs>
    <g id="ejecutivo" stroke="none" stroke-width="1" fill="none" fill-rule="evenodd">
        <g id="002-home-llamame-1" transform="translate(-892.000000, -8.000000)" fill="#FFFFFF" fill-rule="nonzero">
            <g id="solid" transform="translate(892.000000, 8.000000)">
                <path d="M19,19 C23.1973641,19 26.6,15.5973641 26.6,11.4 C26.6,7.2026359 23.1973641,3.8 19,3.8 C14.8026359,3.8 11.4,7.2026359 11.4,11.4 C11.4,15.5973641 14.8026359,19 19,19 Z M19,38 C26.6,38 32.3,33.123334 32.3,32.4900008 C32.3,31.8566673 32.3,30.8433338 32.3,29.45 C32.3,26.1918156 26.4376026,22.8 19,22.8 C11.5623973,22.8 5.7,26.1918156 5.7,29.45 C5.7,30.8433338 5.7,31.8566673 5.7,32.4900008 C5.7,33.123334 11.4,38 19,38 Z M3.8,30.4018523 C1.41394004,27.2260249 0,23.2781342 0,19 C0,8.50658975 8.50658975,0 19,0 C29.4934103,0 38,8.50658975 38,19 C38,23.2781342 36.5860599,27.2260249 34.2,30.4018523 L34.2,29.45 C34.2,24.7279653 27.3947282,20.9 19,20.9 C10.6052718,20.9 3.8,24.7279653 3.8,29.45 L3.8,30.4018523 Z M19,17.1 C22.148023,17.1 24.7,14.5480231 24.7,11.4 C24.7,8.25197692 22.148023,5.7 19,5.7 C15.851977,5.7 13.3,8.25197692 13.3,11.4 C13.3,14.5480231 15.851977,17.1 19,17.1 Z" id="path-1"></path>
            </g>
        </g>
    </g>
</svg>