<?xml version="1.0" encoding="UTF-8" standalone="no"?>
<svg width="22px" height="22px" viewBox="0 0 22 22" version="1.1" xmlns="http://www.w3.org/2000/svg" xmlns:xlink="http://www.w3.org/1999/xlink">
    <!-- Generator: Sketch 46.2 (44496) - http://www.bohemiancoding.com/sketch -->
    <title>Combined Shape</title>
    <desc>Created with Sketch.</desc>
    <defs>
        <path d="M12,1 C5.934875,1 1,5.934875 1,12 C1,18.065125 5.934875,23 12,23 C18.065125,23 23,18.065125 23,12 C23,5.934875 18.065125,1 12,1 Z M12,21.5005625 C6.7619375,21.5005625 2.4994375,17.2380625 2.4994375,12 C2.4994375,6.7619375 6.7619375,2.4994375 12,2.4994375 C17.2380625,2.4994375 21.5005625,6.7619375 21.5005625,12 C21.5005625,17.2380625 17.2380625,21.5005625 12,21.5005625 Z M16.1745,6.9489375 L17.11775,7.6941875 C17.1308125,7.70725 17.1459375,7.7244375 17.1541875,7.74575 C17.16725,7.7670625 17.1755,7.7863125 17.1755,7.8035 C17.179625,7.8316875 17.179625,7.857125 17.1755,7.8811875 C17.1693125,7.9045625 17.1583125,7.9265625 17.14525,7.9458125 L10.966,16.3828125 C10.9529375,16.404125 10.931625,16.4171875 10.912375,16.43025 L10.8415625,16.453625 L10.8285,16.453625 C10.805125,16.453625 10.7810625,16.4474375 10.75975,16.4405625 C10.7384375,16.4275 10.7233125,16.4171875 10.7123125,16.404125 L7.34975,12.9191875 C7.3366875,12.897875 7.326375,12.88275 7.315375,12.856625 C7.304375,12.8394375 7.3023125,12.8201875 7.3023125,12.798875 C7.3023125,12.7706875 7.3064375,12.7473125 7.315375,12.7280625 C7.326375,12.70675 7.3366875,12.691625 7.34975,12.6765 L8.1836875,11.802 C8.2180625,11.767625 8.258625,11.7504375 8.3060625,11.7504375 C8.3535,11.7504375 8.3940625,11.767625 8.4284375,11.802 L10.6930625,14.14775 L15.931125,6.9895 C15.9545,6.9489375 15.9936875,6.924875 16.0404375,6.9186875 C16.087875,6.9145625 16.1325625,6.92075 16.1738125,6.9489375 L16.1745,6.9489375 Z" id="path-1"></path>
    </defs>
    <g id="Symbols" stroke="none" stroke-width="1" fill="none" fill-rule="evenodd">
        <g id="ico-/-ok" transform="translate(-1.000000, -1.000000)">
            <mask id="mask-2" fill="white">
                <use xlink:href="#path-1"></use>
            </mask>
            <use id="Combined-Shape" fill="#CACACA" fill-rule="nonzero" xlink:href="#path-1"></use>
        </g>
    </g>
</svg>