<?xml version="1.0" encoding="UTF-8"?>
<svg width="16px" height="16px" viewBox="0 0 16 16" version="1.1" xmlns="http://www.w3.org/2000/svg" xmlns:xlink="http://www.w3.org/1999/xlink">
    <!-- Generator: Sketch 49.1 (51147) - http://www.bohemiancoding.com/sketch -->
    <title>Page 1</title>
    <desc>Created with Sketch.</desc>
    <defs></defs>
    <g id="Asesor" stroke="none" stroke-width="1" fill="none" fill-rule="evenodd">
        <g id="ficha-paciente-2-asesor-NUEVA" transform="translate(-654.000000, -548.000000)" fill="#0079C8">
            <path d="M668.000085,562.792991 L664.206627,559.000212 L665.000212,558.207306 L668.792991,562.000085 L668.000085,562.792991 Z M654.999958,553.249608 C654.999958,550.90619 656.90619,548.999958 659.249608,548.999958 C661.593025,548.999958 663.499936,550.90619 663.499936,553.249608 C663.499936,555.593704 661.593025,557.499936 659.249608,557.499936 C656.90619,557.499936 654.999958,555.593704 654.999958,553.249608 Z M665.353897,557.146251 C665.157707,556.951419 664.842038,556.951419 664.646527,557.146251 L664.250074,557.543383 L663.296958,556.590267 C664.048453,555.681955 664.499894,554.517714 664.499894,553.249608 C664.499894,550.354958 662.144936,548 659.249608,548 C656.355637,548 654,550.354958 654,553.249608 C654,556.144936 656.355637,558.499894 659.249608,558.499894 C660.518393,558.499894 661.681276,558.047775 662.590267,557.296958 L663.543383,558.250074 L663.14693,558.646527 C662.951419,558.842038 662.951419,559.158386 663.14693,559.353897 L667.6464,563.853367 C667.744155,563.951122 667.87246,564 668.000085,564 C668.12771,564 668.256014,563.951122 668.35377,563.853367 L669.853367,562.35377 C670.048878,562.158259 670.048878,561.841911 669.853367,561.6464 L665.353897,557.146251 Z" id="Page-1"></path>
        </g>
    </g>
</svg>