<?xml version="1.0" encoding="UTF-8"?>
<svg width="12px" height="12px" viewBox="0 0 12 12" version="1.1" xmlns="http://www.w3.org/2000/svg" xmlns:xlink="http://www.w3.org/1999/xlink">
    <!-- Generator: Sketch 49.1 (51147) - http://www.bohemiancoding.com/sketch -->
    <title>Fill 1</title>
    <desc>Created with Sketch.</desc>
    <defs></defs>
    <g id="ejecutivo" stroke="none" stroke-width="1" fill="none" fill-rule="evenodd">
        <g id="004-notificación" transform="translate(-1188.000000, -557.000000)" fill="#0079C8">
            <g id="Group-8">
                <g id="Group-6" transform="translate(929.000000, 535.000000)">
                    <g id="nOTIFICACIÓN">
                        <g id="Page-1" transform="translate(259.000000, 22.000000)">
                            <path d="M9.06219692,4.27423385 L9.31032,4.62721846 C9.33007385,4.65601846 9.33893538,4.68869538 9.33542769,4.72857231 C9.33376615,4.76826462 9.31936615,4.79724923 9.29019692,4.81700308 C7.89505846,5.96992615 7.05192,6.64303385 6.76595077,6.83484923 C6.48016615,7.02851077 6.32453538,7.12063385 6.29905846,7.12063385 C6.26268923,7.12063385 6.06570462,6.97423385 5.70367385,6.67386462 C5.34182769,6.37534154 4.24152,5.32561846 2.40127385,3.52155692 C2.37782769,3.49608 2.36675077,3.46543385 2.36342769,3.42555692 C2.35770462,3.38586462 2.36675077,3.35152615 2.38872,3.32420308 L2.54416615,3.15768 C2.56410462,3.12352615 2.59308923,3.10524923 2.63296615,3.09989538 C2.67265846,3.09804923 2.70515077,3.10524923 2.73413538,3.12518769 L6.29905846,5.61878769 L8.88312,4.22364923 C8.91210462,4.20906462 8.94293538,4.20555692 8.97708923,4.21091077 C9.01161231,4.21995692 9.03875077,4.23989538 9.06219692,4.27423385 M11.1136431,5.96291077 C11.1136431,3.12315692 8.80318154,0.812510769 5.96305846,0.812510769 C3.12312,0.812510769 0.812473846,3.12315692 0.812473846,5.96291077 C0.812473846,8.80284923 3.12312,11.1134954 5.96305846,11.1134954 C8.80318154,11.1134954 11.1136431,8.80284923 11.1136431,5.96291077 M11.9261354,5.96291077 C11.9261354,9.25109538 9.25105846,11.9259877 5.96305846,11.9259877 C2.67505846,11.9259877 -1.84615385e-05,9.25109538 -1.84615385e-05,5.96291077 C-1.84615385e-05,2.67491077 2.67505846,1.84615385e-05 5.96305846,1.84615385e-05 C9.25105846,1.84615385e-05 11.9261354,2.67491077 11.9261354,5.96291077" id="Fill-1"></path>
                        </g>
                    </g>
                </g>
            </g>
        </g>
    </g>
</svg>