<?xml version="1.0" encoding="UTF-8" standalone="no"?>
<svg width="22px" height="21px" viewBox="0 0 22 21" version="1.1" xmlns="http://www.w3.org/2000/svg" xmlns:xlink="http://www.w3.org/1999/xlink">
    <!-- Generator: Sketch 46.2 (44496) - http://www.bohemiancoding.com/sketch -->
    <title>Page 1</title>
    <desc>Created with Sketch.</desc>
    <defs>
        <polygon id="path-1" points="0.620216667 0.587583333 5.34655 0.587583333 5.34655 5.31336667 0.620216667 5.31336667"></polygon>
    </defs>
    <g id="Symbols" stroke="none" stroke-width="1" fill="none" fill-rule="evenodd">
        <g id="Ficha-paciente" transform="translate(-37.000000, -506.000000)">
            <g id="Page-1" transform="translate(37.000000, 506.000000)">
                <path d="M10.8021833,2.94231667 C12.9985167,2.94231667 14.85385,5.26056667 14.85385,8.00598333 C14.85385,10.7504833 12.9985167,13.06965 10.8021833,13.06965 C8.60585,13.06965 6.75143333,10.7504833 6.75143333,8.00598333 C6.75143333,5.26056667 8.60585,2.94231667 10.8021833,2.94231667 M10.8021833,14.4199 C13.7300167,14.4199 16.2041,11.4819833 16.2041,8.00598333 C16.2041,4.52906667 13.7300167,1.59206667 10.8021833,1.59206667 C7.87526667,1.59206667 5.40118333,4.52906667 5.40118333,8.00598333 C5.40118333,11.4819833 7.87526667,14.4199 10.8021833,14.4199" id="Fill-1" fill="#DADBDB"></path>
                <path d="M6.684425,15.14095 L10.5005083,17.04945 C10.6902583,17.1438667 10.913925,17.1438667 11.1045917,17.04945 L14.9197583,15.14095 L19.051175,16.3216167 L19.9935083,19.1458667 L1.61159167,19.1458667 L2.55300833,16.3216167 L6.684425,15.14095 Z M1.385175,15.5562 L0.034925,19.6078667 C-0.033825,19.8132 0.00100833333,20.0396167 0.127508333,20.2156167 C0.254008333,20.3925333 0.458425,20.4961167 0.674758333,20.4961167 L20.929425,20.4961167 C21.146675,20.4961167 21.3510917,20.3925333 21.4775917,20.2156167 C21.6040917,20.0396167 21.6380083,19.8132 21.570175,19.6078667 L20.2208417,15.5562 C20.1493417,15.3453667 19.9797583,15.1822 19.7652583,15.1207833 L15.038925,13.7705333 C14.876675,13.7237833 14.7025083,13.7402833 14.5512583,13.81545 L10.8020917,15.6900333 L7.052925,13.81545 C6.901675,13.7402833 6.72934167,13.7237833 6.566175,13.7705333 L1.83984167,15.1207833 C1.62534167,15.1822 1.45575833,15.3453667 1.385175,15.5562 L1.385175,15.5562 Z" id="Fill-3" fill="#DADBDB"></path>
                <g id="Group-7" transform="translate(15.583333, 0.329450)">
                    <mask id="mask-2" fill="white">
                        <use xlink:href="#path-1"></use>
                    </mask>
                    <g id="Clip-6"></g>
                    <path d="M0.818216667,5.11536667 C0.950216667,5.24736667 1.12255,5.31336667 1.2958,5.31336667 C1.46813333,5.31336667 1.64046667,5.24736667 1.77246667,5.11536667 L2.98338333,3.90536667 L4.1943,5.11536667 C4.32538333,5.24736667 4.49863333,5.31336667 4.67096667,5.31336667 C4.84421667,5.31336667 5.01655,5.24736667 5.14855,5.11536667 C5.41255,4.85136667 5.41255,4.42511667 5.14855,4.1602 L3.93763333,2.9502 L5.14855,1.73928333 C5.41255,1.4762 5.41255,1.04811667 5.14855,0.785033333 C4.88546667,0.521033333 4.4583,0.521033333 4.1943,0.785033333 L2.98338333,1.99595 L1.77246667,0.785033333 C1.50938333,0.521033333 1.08221667,0.521033333 0.818216667,0.785033333 C0.554216667,1.04811667 0.554216667,1.4762 0.818216667,1.73928333 L2.02821667,2.9502 L0.818216667,4.1602 C0.554216667,4.42511667 0.554216667,4.85136667 0.818216667,5.11536667" id="Fill-5" fill="#DADBDB" mask="url(#mask-2)"></path>
                </g>
            </g>
        </g>
    </g>
</svg>