<?xml version="1.0" encoding="UTF-8" standalone="no"?>
<svg width="80px" height="80px" viewBox="0 0 80 80" version="1.1" xmlns="http://www.w3.org/2000/svg" xmlns:xlink="http://www.w3.org/1999/xlink">
    <!-- Generator: Sketch 46.2 (44496) - http://www.bohemiancoding.com/sketch -->
    <title>Group</title>
    <desc>Created with Sketch.</desc>
    <defs></defs>
    <g id="Symbols" stroke="none" stroke-width="1" fill="none" fill-rule="evenodd">
        <g id="ic_Exito" transform="translate(4.000000, 4.000000)">
            <g id="Group">
                <g id="Group-6-Copy-3" stroke-width="4" stroke="#409B6D">
                    <circle id="Oval" cx="36" cy="36" r="38"></circle>
                </g>
                <g id="Ok" transform="translate(20.000000, 20.000000)" fill="#409B6D" fill-rule="nonzero">
                    <path d="M29.5743945,0.0507131537 L32.7716263,2.56101426 C32.7716263,2.56101426 32.8858131,2.67511886 32.8858131,2.78922345 C32.8858131,2.90332805 33,2.90332805 33,3.01743265 L33,3.24564184 C33,3.35974643 33,3.35974643 32.8858131,3.47385103 L12.2179931,31.7717908 C12.2179931,31.8858954 12.1038062,31.8858954 11.9896194,31.8858954 L11.7612457,32 L11.532872,32 C11.4186851,32 11.4186851,31.8858954 11.4186851,31.8858954 L0.114186851,20.2472266 C0.114186851,20.133122 -3.62376795e-13,20.133122 -3.62376795e-13,20.0190174 L-3.62376795e-13,19.7908082 L-3.62376795e-13,19.562599 C-3.62376795e-13,19.4484945 0.114186851,19.4484945 0.114186851,19.3343899 L2.96885813,16.3676704 C3.08304498,16.2535658 3.19723183,16.1394612 3.42560554,16.1394612 C3.65397924,16.1394612 3.76816609,16.2535658 3.88235294,16.3676704 L11.532872,24.2408875 L29.1176471,0.278922345 C29.2318339,0.16481775 29.3460208,0.0507131537 29.4602076,0.0507131537 C29.2318339,-0.0633914422 29.4602076,0.0507131537 29.5743945,0.0507131537 Z"></path>
                </g>
            </g>
        </g>
    </g>
</svg>