<?xml version="1.0" encoding="UTF-8" standalone="no"?>
<svg width="25px" height="19px" viewBox="0 0 25 19" version="1.1" xmlns="http://www.w3.org/2000/svg" xmlns:xlink="http://www.w3.org/1999/xlink">
    <!-- Generator: Sketch 46.2 (44496) - http://www.bohemiancoding.com/sketch -->
    <title>enviar mail</title>
    <desc>Created with Sketch.</desc>
    <defs></defs>
    <g id="ejecutivo" stroke="none" stroke-width="1" fill="none" fill-rule="evenodd">
        <g id="004-ficha-paciente-1" transform="translate(-1219.000000, -207.000000)" fill="#0079C8">
            <g id="enviar-mail" transform="translate(1219.000000, 207.000000)">
                <path d="M22.4455556,2.68638889 L22.5668519,2.85027778 L22.5677778,2.84935185 L22.4455556,2.68638889 Z M12.1631481,11.1373148 C12.0492593,11.1373148 11.9427778,11.1021296 11.8538889,11.035463 L1.47611111,3.32898148 C1.365,3.2475 1.29277778,3.12712963 1.27240741,2.99009259 C1.25111111,2.85305556 1.2862963,2.71509259 1.36962963,2.60305556 C1.45018519,2.4937963 1.57148148,2.42157407 1.70851852,2.40027778 C1.85111111,2.38083333 1.98351852,2.41509259 2.09462963,2.4975 L12.1631481,9.97342593 L22.2798148,2.46324074 C22.2798148,2.46324074 22.2807407,2.46231481 22.2816667,2.46231481 C22.5122222,2.29287037 22.8372222,2.34194444 23.0048148,2.57157407 C23.0872222,2.68083333 23.1214815,2.81787037 23.102037,2.95490741 C23.0816667,3.09194444 23.0094444,3.21231481 22.8983333,3.29564815 L12.4714815,11.0363889 C12.3835185,11.1012037 12.2742593,11.1373148 12.1631481,11.1373148 L12.1631481,11.1373148 Z" id="Fill-1"></path>
                <g id="Group-5" transform="translate(0.000000, 0.792963)">
                    <path d="M15.8257407,14.5399074 L23.1766667,14.5399074 C23.2646296,14.5399074 23.3368519,14.4676852 23.3368519,14.3797222 L23.3368519,1.3287963 C23.3368519,1.24175926 23.2646296,1.16953704 23.1766667,1.16953704 L1.19703704,1.16953704 C1.10907407,1.16953704 1.03685185,1.24175926 1.03685185,1.3287963 L1.03685185,14.3797222 C1.03685185,14.4676852 1.10907407,14.5399074 1.19703704,14.5399074 L8.49518519,14.5399074 L8.22296296,14.2667593 C7.94240741,13.9871296 7.7887037,13.6158333 7.7887037,13.220463 C7.7887037,12.8250926 7.94240741,12.4528704 8.22296296,12.1732407 C8.76,11.6362037 9.78037037,11.6362037 10.3174074,12.1732407 L12.16,14.0176852 L16.8562963,9.32138889 C17.4266667,8.75287037 18.3840741,8.75564815 18.9498148,9.32138889 C19.2303704,9.60009259 19.3840741,9.97138889 19.3840741,10.3676852 C19.3840741,10.7649074 19.2303704,11.1362037 18.9498148,11.4158333 L15.8257407,14.5399074 Z M12.1498148,14.6871296 L12.1859259,14.7232407 L12.2303704,14.6778704 C12.2081481,14.6843519 12.1840741,14.6871296 12.16,14.6871296 L12.1498148,14.6871296 Z M14.8775926,14.8093519 L14.6655556,15.0213889 L14.6738889,15.0213889 L14.9655556,15.0213889 C14.9368519,14.9936111 14.9137037,14.9612037 14.897963,14.9241667 C14.8822222,14.8871296 14.8766667,14.8482407 14.8775926,14.8093519 L14.8775926,14.8093519 Z M9.35537037,15.0213889 L9.64611111,15.0213889 L9.65722222,15.0213889 L9.44333333,14.8075 C9.44518519,14.8463889 9.4387037,14.8862037 9.42296296,14.9241667 C9.40722222,14.9612037 9.38407407,14.9936111 9.35537037,15.0213889 L9.35537037,15.0213889 Z M9.26925926,12.7760185 C9.15074074,12.7760185 9.03962963,12.8223148 8.95537037,12.9056481 C8.87203704,12.9899074 8.82574074,13.1019444 8.82574074,13.220463 C8.82574074,13.3389815 8.87203704,13.4510185 8.95537037,13.5343519 L11.847037,16.4260185 C12.0044444,16.5834259 12.3192593,16.5834259 12.4766667,16.4260185 L18.2164815,10.6825 C18.3025926,10.5963889 18.347963,10.4880556 18.347963,10.3676852 C18.347963,10.2491667 18.3016667,10.1380556 18.2174074,10.0556481 C18.0581481,9.89638889 17.7461111,9.89824074 17.5887037,10.0537963 L12.5266667,15.1158333 C12.4285185,15.2149074 12.297963,15.2686111 12.16,15.2686111 L12.1590741,15.2686111 C12.0211111,15.2686111 11.8905556,15.2139815 11.7933333,15.1149074 L9.58407407,12.9056481 C9.49981481,12.8223148 9.38777778,12.7760185 9.26925926,12.7760185 L9.26925926,12.7760185 Z M12.672963,16.6223148 L12.6803704,16.6223148 L12.672963,16.6223148 Z M12.1618519,17.5926852 C11.7664815,17.5926852 11.3951852,17.4389815 11.1146296,17.1602778 L9.5312963,15.5760185 L1.19703704,15.5760185 C0.536851852,15.5760185 -0.000185185185,15.0399074 -0.000185185185,14.3797222 L-0.000185185185,1.3287963 C-0.000185185185,0.669537037 0.536851852,0.1325 1.19703704,0.1325 L23.1766667,0.1325 C23.8368519,0.1325 24.3738889,0.669537037 24.3738889,1.3287963 L24.3738889,14.3797222 C24.3738889,15.0399074 23.8368519,15.5760185 23.1766667,15.5760185 L14.7887037,15.5760185 L13.2211111,17.144537 C12.9368519,17.4325 12.56,17.5926852 12.1618519,17.5926852 L12.1618519,17.5926852 Z" id="Fill-3"></path>
                </g>
            </g>
        </g>
    </g>
</svg>