<?xml version="1.0" encoding="UTF-8" standalone="no"?>
<svg width="137px" height="106px" viewBox="0 0 137 106" version="1.1" xmlns="http://www.w3.org/2000/svg" xmlns:xlink="http://www.w3.org/1999/xlink">
    <!-- Generator: Sketch 46.2 (44496) - http://www.bohemiancoding.com/sketch -->
    <title>Page 1</title>
    <desc>Created with Sketch.</desc>
    <defs>
        <polygon id="path-1" points="171 0 0 0 0 133 171 133 171 2.71773153e-14"></polygon>
    </defs>
    <g id="ejecutivo" stroke="none" stroke-width="1" fill="none" fill-rule="evenodd">
        <g id="009-mensaje-landscape" transform="translate(-572.000000, -312.000000)">
            <g id="Page-1" transform="translate(555.000000, 298.000000)">
                <mask id="mask-2" fill="white">
                    <use xlink:href="#path-1"></use>
                </mask>
                <g id="Clip-2"></g>
                <path d="M114.22502,40.6855705 L114.22502,44.4914803 L109.748374,48.9741319 L105.267158,44.4914803 L105.267158,40.6855705 L108.158167,43.5784887 C107.049287,33.3450572 98.3686446,25.3521892 87.8540854,25.3521892 L87.8540854,22.4150694 C100.060905,22.4150694 110.1048,31.8361061 111.123812,43.7934 L114.22502,40.6855705 Z M50.6380597,108.248472 C49.1163959,108.248472 47.8856609,107.016924 47.8856609,105.49578 C47.8856609,103.973111 49.1179191,102.740039 50.6380597,102.740039 C52.1582002,102.740039 53.3919816,103.973111 53.3919816,105.49578 C53.3919816,107.016924 52.1582002,108.248472 50.6380597,108.248472 L50.6380597,108.248472 Z M50.6380597,17.6717809 C51.1437577,17.6717809 51.5550182,18.083313 51.5550182,18.589345 C51.5550182,19.0953771 51.1437577,19.5069092 50.6380597,19.5069092 C50.1308384,19.5069092 49.719578,19.0953771 49.719578,18.589345 C49.719578,18.083313 50.1308384,17.6717809 50.6380597,17.6717809 L50.6380597,17.6717809 Z M54.3089401,101.150306 L21.3426059,101.150306 C21.140022,101.150306 20.9755178,100.987217 20.9755178,100.782975 L20.9755178,22.3220936 C20.9755178,22.1193759 21.140022,21.9547631 21.3426059,21.9547631 L79.9335134,21.9547631 C80.1376205,21.9547631 80.3021247,22.1178518 80.3021247,22.3220936 L80.3021247,48.8842045 L84.2745961,48.8842045 L84.2745961,17.6717809 C84.2745961,15.64308 82.6326006,14 80.6052389,14 L20.6708804,14 C18.6435187,14 17,15.6446042 17,17.6717809 L17,106.047538 C17,108.07319 18.6450419,109.717794 20.6708804,109.717794 L54.3089401,109.717794 L54.3089401,101.150306 Z M51.8687947,105.072054 L51.8687947,105.917981 C51.8687947,106.363046 51.5062762,106.724279 51.0615056,106.724279 L50.2176601,106.724279 C49.7728895,106.724279 49.410371,106.363046 49.410371,105.917981 L49.410371,105.072054 C49.410371,104.62699 49.7728895,104.265756 50.2176601,104.265756 L51.0615056,104.265756 C51.504753,104.265756 51.8687947,104.62699 51.8687947,105.072054 L51.8687947,105.072054 Z M61.3354013,86.7619239 L61.3354013,85.9159968 C61.3354013,85.4709325 61.699443,85.1096988 62.1426904,85.1096988 L62.9865359,85.1096988 C63.4313065,85.1096988 63.793825,85.4709325 63.793825,85.9159968 L63.793825,86.7619239 C63.793825,87.2069883 63.4313065,87.568222 62.9865359,87.568222 L62.1426904,87.568222 C61.699443,87.5697462 61.3354013,87.2069883 61.3354013,86.7619239 L61.3354013,86.7619239 Z M67.2727839,116.021856 C67.0702,116.021856 66.907219,115.858768 66.907219,115.657574 L66.907219,57.0249191 C66.907219,56.8222015 67.0702,56.6575886 67.2727839,56.6575886 L145.681876,56.6575886 C145.88446,56.6575886 146.050488,56.8222015 146.050488,57.0249191 L146.050488,115.657574 C146.050488,115.858768 145.88446,116.021856 145.681876,116.021856 L67.2727839,116.021856 Z M59.8122144,86.3397225 C59.8122144,84.8185779 61.0444726,83.5839816 62.5646131,83.5839816 C64.0862769,83.5839816 65.3185351,84.8185779 65.3185351,86.3397225 C65.3185351,87.8593429 64.0862769,89.0939392 62.5646131,89.0939392 C61.0444726,89.0939392 59.8122144,87.8593429 59.8122144,86.3397225 L59.8122144,86.3397225 Z M150.330643,86.3397225 C150.330643,86.8472787 149.920905,87.2572866 149.413684,87.2572866 C148.906463,87.2572866 148.495203,86.8472787 148.495203,86.3397225 C148.495203,85.8321662 148.906463,85.4206341 149.413684,85.4206341 C149.920905,85.4206341 150.330643,85.8321662 150.330643,86.3397225 L150.330643,86.3397225 Z M154,116.328219 L154,56.3497016 C154,54.322525 152.356481,52.6779208 150.330643,52.6779208 L62.0162659,52.6779208 C59.9889041,52.6779208 58.3453854,54.322525 58.3453854,56.3497016 L58.3453854,116.328219 C58.3453854,118.355396 59.9904273,120 62.0162659,120 L150.330643,120 C152.356481,120 154,118.355396 154,116.328219 L154,116.328219 Z" id="Fill-1" fill="#0079C8" mask="url(#mask-2)"></path>
            </g>
        </g>
    </g>
</svg>