<?xml version="1.0" encoding="UTF-8" standalone="no"?>
<svg width="28px" height="30px" viewBox="0 0 28 30" version="1.1" xmlns="http://www.w3.org/2000/svg" xmlns:xlink="http://www.w3.org/1999/xlink">
    <!-- Generator: Sketch 46.2 (44496) - http://www.bohemiancoding.com/sketch -->
    <title>Page 1</title>
    <desc>Created with Sketch.</desc>
    <defs></defs>
    <g id="ejecutivo" stroke="none" stroke-width="1" fill="none" fill-rule="evenodd">
        <g id="002-home" transform="translate(-14.000000, -110.000000)" fill="#FFFFFF">
            <g id="Page-1" transform="translate(14.000000, 110.000000)">
                <path d="M4.58080123,4.86702619 C5.8214792,4.86702619 6.82363636,5.86918336 6.82363636,7.10986133 C6.82363636,8.35053929 5.8214792,9.35269646 4.58080123,9.35269646 C3.34012327,9.35269646 2.3379661,8.35053929 2.3379661,7.10986133 C2.28989214,5.86918336 3.34012327,4.86702619 4.58080123,4.86702619 L4.58080123,4.86702619 Z M4.58080123,11.0223421 C6.72795069,11.0223421 8.49328197,9.25701079 8.49328197,7.10986133 C8.49328197,4.96317411 6.72795069,3.19738059 4.58080123,3.19738059 C2.38604006,3.19738059 0.668320493,4.96317411 0.668320493,7.10986133 C0.620246533,9.3046225 2.38604006,11.0223421 4.58080123,11.0223421 L4.58080123,11.0223421 Z M22.6653929,4.86702619 C23.9056086,4.86702619 24.908228,5.86918336 24.908228,7.10986133 C24.908228,8.35053929 23.9056086,9.35269646 22.6653929,9.35269646 C21.4247149,9.35269646 20.4225578,8.35053929 20.4225578,7.10986133 C20.3744838,5.86918336 21.4247149,4.86702619 22.6653929,4.86702619 L22.6653929,4.86702619 Z M22.6653929,11.0223421 C24.8601541,11.0223421 26.5778737,9.25701079 26.5778737,7.10986133 C26.5778737,4.96317411 24.8120801,3.19738059 22.6653929,3.19738059 C20.5182435,3.19738059 18.7524499,4.96317411 18.7524499,7.10986133 C18.7048382,9.3046225 20.4701695,11.0223421 22.6653929,11.0223421 L22.6653929,11.0223421 Z M13.5983667,1.66964561 C14.8390447,1.66964561 15.8412018,2.67180277 15.8412018,3.91248074 C15.8412018,5.15315871 14.8390447,6.15577812 13.5983667,6.15577812 C12.358151,6.15577812 11.3555316,5.15315871 11.3555316,3.91248074 C11.3555316,2.67180277 12.358151,1.66964561 13.5983667,1.66964561 L13.5983667,1.66964561 Z M13.5983667,7.87303544 C15.7935901,7.87303544 17.5113097,6.10770416 17.5113097,3.9605547 C17.5113097,1.76579353 15.7455162,0 13.5983667,0 C11.4516795,0 9.68588598,1.76579353 9.68588598,3.91248074 C9.68588598,6.10770416 11.4036055,7.87303544 13.5983667,7.87303544 L13.5983667,7.87303544 Z M19.4199384,12.4539291 C19.4199384,12.0716487 19.3247149,11.738829 19.1818798,11.4046225 C18.8957473,10.6890601 18.4187057,10.1158706 17.7502928,9.73497689 C17.2251772,9.44884438 16.6529122,9.25793529 16.0325732,9.25793529 L11.117473,9.25793529 C10.4971341,9.25793529 9.87725732,9.44884438 9.39975347,9.73497689 C8.77941448,10.1167951 8.25429892,10.6890601 7.96816641,11.4046225 C7.82533128,11.738829 7.77725732,12.0725732 7.73010786,12.4539291 L7.73010786,12.6453005 L7.73010786,19.0867488 C7.73010786,19.5157165 7.82533128,19.9460709 7.96816641,20.3269646 C8.25429892,20.9953775 8.68326656,21.5676425 9.30360555,21.949923 C9.35167951,21.949923 9.35167951,21.9979969 9.39882897,21.9979969 C9.63688752,22.140832 9.92440678,22.2841294 10.210077,22.3322034 L10.210077,29.4887519 L11.8801849,29.4887519 L11.8801849,20.8044684 L11.1165485,20.8044684 C10.6871186,20.8044684 10.3533744,20.661171 10.019168,20.422188 C9.63688752,20.0879815 9.39882897,19.6590139 9.39882897,19.0858243 L9.39882897,12.6919877 C9.39882897,11.7379045 10.1624653,11.0223421 11.1165485,11.0223421 L16.0787982,11.0223421 C17.0328814,11.0223421 17.7965177,11.7859784 17.7965177,12.7400616 L17.7965177,19.1819723 C17.7965177,19.7070878 17.5584592,20.1360555 17.2242527,20.4702619 C16.9381202,20.7083205 16.5558398,20.8996918 16.1268721,20.8996918 L15.3632357,20.8996918 L15.3632357,29.5839753 L17.0328814,29.5839753 L17.0328814,22.4269646 C17.3190139,22.3322034 17.6051464,22.2360555 17.8441294,22.0927581 C17.8922034,22.0927581 17.9393529,22.0451464 17.9393529,22.0451464 C18.5116179,21.6628659 18.9886595,21.0906009 19.2281048,20.4702619 C19.3709399,20.0879815 19.4661633,19.6590139 19.4661633,19.229584 L19.4661633,12.6929122 C19.4661633,12.598151 19.4180894,12.550077 19.4180894,12.4548536 L19.4199384,12.4539291 Z M3.38727273,14.1235747 L6.05953775,14.1235747 L6.05953775,12.4539291 L3.38727273,12.4539291 C1.52671803,12.4539291 -9.2449923e-05,13.9807396 -9.2449923e-05,15.8412943 L-9.2449923e-05,20.5654854 C-9.2449923e-05,22.0918336 1.04921418,23.4286595 2.48126348,23.8095532 L2.48126348,29.5359014 L4.15090909,29.5359014 L4.15090909,22.2832049 L3.38727273,22.2832049 C2.43318952,22.2832049 1.66955316,21.5195686 1.66955316,20.5654854 L1.66955316,15.8412943 C1.66955316,14.9348228 2.43318952,14.1235747 3.38727273,14.1235747 L3.38727273,14.1235747 Z M23.8575347,12.4539291 L21.1376579,12.4539291 L21.1376579,14.1235747 L23.8575347,14.1235747 C24.8120801,14.1235747 25.5752542,14.8872111 25.5752542,15.8412943 L25.5752542,20.5654854 C25.5752542,21.5195686 24.8120801,22.2832049 23.8575347,22.2832049 L23.0943606,22.2832049 L23.0943606,29.5359014 L24.7640062,29.5359014 L24.7640062,23.8095532 C26.1955932,23.427735 27.2448998,22.0918336 27.2448998,20.5654854 L27.2448998,15.8412943 C27.2448998,13.9807396 25.7185516,12.4539291 23.8575347,12.4539291 L23.8575347,12.4539291 Z" id="Fill-1"></path>
            </g>
        </g>
    </g>
</svg>