<?xml version="1.0" encoding="UTF-8"?>
<svg width="10px" height="19px" viewBox="0 0 10 19" version="1.1" xmlns="http://www.w3.org/2000/svg" xmlns:xlink="http://www.w3.org/1999/xlink">
    <!-- Generator: Sketch 49.1 (51147) - http://www.bohemiancoding.com/sketch -->
    <title>Page 1</title>
    <desc>Created with Sketch.</desc>
    <defs></defs>
    <g id="ejecutivo" stroke="none" stroke-width="1" fill="none" fill-rule="evenodd">
        <g id="004-Nueva-reserva-de-hora/medico-1" transform="translate(-420.000000, -106.000000)" fill="#6C6E71">
            <g id="Page-1" transform="translate(420.000000, 106.000000)">
                <g id="Group-3">
                    <path d="M5.1643125,16.9067085 L4.7268125,16.9067085 C3.6543125,16.9067085 2.8205625,16.0302194 2.8205625,14.9938558 L2.8205625,5.98821317 L7.1099375,5.98821317 L7.1099375,14.9938558 C7.0711875,16.0690909 6.2374375,16.9067085 5.1643125,16.9067085 M9.2155625,0.449655172 L7.7061875,0.449655172 C7.3486875,0.449655172 7.0711875,0.728652038 7.0711875,1.04777429 L7.0711875,1.08789969 L7.0711875,1.28601881 L7.0711875,4.67347962 L2.7811875,4.67347962 L2.7811875,1.28601881 L2.7811875,1.08789969 L2.7811875,1.04777429 C2.7811875,0.689153605 2.5030625,0.41015674 2.1455625,0.41015674 L0.6355625,0.41015674 C0.2780625,0.41015674 -6.25e-05,0.689153605 -6.25e-05,1.04777429 C-6.25e-05,1.40639498 0.2780625,1.68539185 0.6355625,1.68539185 L1.4705625,1.68539185 L1.4705625,14.9537304 C1.4705625,16.7474608 2.9005625,18.1819436 4.6874375,18.1819436 L5.1643125,18.1819436 C6.9518125,18.1819436 8.3818125,16.7474608 8.3818125,14.9537304 L8.3818125,1.72489028 L9.2155625,1.72489028 C9.5736875,1.72489028 9.8511875,1.44652038 9.8511875,1.08789969 C9.8511875,0.728652038 9.5736875,0.449655172 9.2155625,0.449655172" id="Fill-1"></path>
                </g>
                <path d="M5.45454545,8.18181818 C5.95641811,8.18181818 6.36363636,8.58782656 6.36363636,9.0912497 C6.36363636,9.5933104 5.95641811,10 5.45454545,10 C4.9526728,10 4.54545455,9.5933104 4.54545455,9.0912497 C4.54545455,8.58782656 4.9526728,8.18181818 5.45454545,8.18181818" id="Fill-4"></path>
                <path d="M4.54511393,10 C5.04717463,10 5.45454545,10.4073708 5.45454545,10.9094315 C5.45454545,11.410811 5.04717463,11.8181818 4.54511393,11.8181818 C4.04305324,11.8181818 3.63636364,11.410811 3.63636364,10.9094315 C3.63636364,10.4073708 4.04305324,10 4.54511393,10" id="Fill-6"></path>
            </g>
        </g>
    </g>
</svg>