<?xml version="1.0" encoding="UTF-8" standalone="no"?>
<svg width="28px" height="28px" viewBox="0 0 28 28" version="1.1" xmlns="http://www.w3.org/2000/svg" xmlns:xlink="http://www.w3.org/1999/xlink">
    <!-- Generator: Sketch 46.2 (44496) - http://www.bohemiancoding.com/sketch -->
    <title>Page 1</title>
    <desc>Created with Sketch.</desc>
    <defs></defs>
    <g id="ejecutivo" stroke="none" stroke-width="1" fill="none" fill-rule="evenodd">
        <g id="002-home" transform="translate(-14.000000, -159.000000)" fill="#FFFFFF">
            <g id="Page-1" transform="translate(14.000000, 159.000000)">
                <path d="M1.43448901,10.2702222 L1.46117651,10.2893333 C1.45242651,10.2826667 1.44367651,10.2764444 1.43448901,10.2702222 M14.0016765,19.9737778 C14.336364,19.9737778 14.6719265,20.0795556 14.957614,20.2911111 L21.0743015,24.8213333 L18.720114,17.484 C18.5018015,16.8031111 18.7380515,16.0622222 19.307239,15.6404444 L25.396364,11.1288889 L17.872239,11.1288889 C17.1665515,11.1288889 16.545739,10.6706667 16.3283015,9.98844444 L14.0016765,2.70088889 L11.6479265,9.99333333 C11.428739,10.6728889 10.8088015,11.1288889 10.104864,11.1288889 L2.59211401,11.1288889 L8.67248901,15.6404444 C9.24036401,16.0626667 9.47573901,16.8022222 9.25917651,17.4813333 L6.91680151,24.8133333 L13.0470515,20.2897778 C13.332739,20.0795556 13.666989,19.9737778 14.0016765,19.9737778 M6.49592651,26.1315556 L6.48498901,26.1657778 C6.48936401,26.1546667 6.49286401,26.1431111 6.49592651,26.1315556 M21.938364,27.2413333 C21.6990515,27.2413333 21.471989,27.1702222 21.262864,27.0302222 L13.9876765,21.6435556 L6.74398901,27.0088889 C6.31655151,27.3031111 5.77186401,27.3031111 5.36673901,27.024 L5.32386401,26.9924444 C4.90517651,26.6617778 4.74767651,26.1075556 4.93142651,25.6124444 L7.69248901,16.9653333 L0.485114013,11.6368889 C0.0764890134,11.3542222 -0.103760987,10.8008889 0.0603015134,10.296 C0.208614013,9.79955556 0.664926513,9.45555556 1.18161401,9.45555556 L10.104864,9.45555556 L12.8659265,0.848888889 C13.0111765,0.34 13.4644265,0 14.003864,0 C14.5048015,0 14.9563015,0.324444444 15.1278015,0.807111111 L17.894989,9.47244444 L26.8116765,9.45555556 C27.308239,9.45555556 27.758864,9.77866667 27.932989,10.2595556 L27.954864,10.3293333 C28.093989,10.8475556 27.904989,11.3728889 27.4836765,11.6533333 L20.277614,16.9915556 L23.0841765,25.6911111 C23.2119265,26.1746667 23.0430515,26.6857778 22.6536765,26.9924444 L22.5941765,27.0351111 C22.385489,27.172 22.164989,27.2413333 21.938364,27.2413333" id="Fill-1"></path>
            </g>
        </g>
    </g>
</svg>