<?xml version="1.0" encoding="UTF-8" standalone="no"?>
<svg width="24px" height="24px" viewBox="0 0 24 24" version="1.1" xmlns="http://www.w3.org/2000/svg" xmlns:xlink="http://www.w3.org/1999/xlink">
    <!-- Generator: Sketch 46.2 (44496) - http://www.bohemiancoding.com/sketch -->
    <title>Group 2</title>
    <desc>Created with Sketch.</desc>
    <defs>
        <circle id="path-1" cx="11" cy="11" r="11"></circle>
    </defs>
    <g id="Symbols" stroke="none" stroke-width="1" fill="none" fill-rule="evenodd">
        <g id="despliegue-horas" transform="translate(-619.000000, -179.000000)">
            <g id="Group-2" transform="translate(620.000000, 180.000000)">
                <g id="Page-1">
                    <mask id="mask-2" fill="white">
                        <use xlink:href="#path-1"></use>
                    </mask>
                    <use id="Mask" fill="#FFFFFF" xlink:href="#path-1"></use>
                    <g mask="url(#mask-2)" id="Fill-1" fill="#0079C8">
                        <g transform="translate(3.000000, 3.000000)">
                            <path d="M8.10477514,15.0688678 L7.76888413,13.561734 C7.6851177,13.1431772 7.30672452,12.6826413 6.97083351,12.5571154 L5.37638283,11.8879184 L5.1246709,10.7989299 C4.99922758,10.8824767 4.87337161,10.9244558 4.747103,11.0088257 L4.99922758,12.0974026 L3.99155455,13.6045363 C3.78151951,13.9399579 3.65607619,14.5671758 3.78151951,14.9865557 L4.11782316,16.4936894 C4.24367913,16.9542254 4.66292393,17.2472563 5.04090447,17.1217304 L5.50265144,16.9542254 L5.54515362,17.1217304 C5.58724316,17.2472563 5.67100959,17.3316261 5.79645291,17.2892354 C5.92272152,17.2472563 5.96439842,17.1217304 5.92272152,16.9962045 L5.71227384,16.2006585 C5.6701843,16.0751326 5.58641787,15.9907628 5.46097455,16.0331535 C5.33511858,16.0751326 5.29302905,16.2006585 5.33511858,16.3261844 L5.37720812,16.4936894 L4.91546115,16.6611944 C4.747103,16.7443296 4.53789324,16.5780593 4.49580371,16.3681635 L4.15950006,14.8610298 C4.07614627,14.5679989 4.15950006,14.1494421 4.3278582,13.9399579 L5.33511858,12.4328242 L6.84580283,13.0608652 C7.05625051,13.1440004 7.3075498,13.479422 7.39131623,13.7724529 L7.72761988,15.2795866 C7.76970942,15.4890708 7.6851177,15.7401226 7.47590795,15.7821017 L7.18210648,15.9076276 L7.14001694,15.7401226 C7.09792741,15.6145967 7.01374833,15.5302268 6.88830501,15.5726175 C6.76244904,15.6145967 6.7203595,15.7401226 6.76244904,15.8656484 L6.97289672,16.6611944 C7.01498626,16.7867203 7.09875269,16.8706786 7.22419602,16.8286995 C7.35005198,16.7867203 7.39214152,16.6611944 7.35005198,16.5356686 L7.3075498,16.3681635 L7.60135127,16.2426376 C8.02142135,16.0331535 8.23145639,15.5314615 8.10560043,15.070514 L8.10477514,15.0688678 Z M0.592205518,17.9991769 L0.549703339,17.9991769 C0.214224974,17.9567862 -0.0374869597,17.6637553 0.00460257683,17.3295683 C0.0471047559,16.8690324 0.381757835,12.8921255 0.634295054,12.0134443 C0.928096525,11.0088257 3.40395161,9.87909274 4.87337161,9.29303091 C5.16717308,9.16750503 5.54432834,9.33501006 5.67100959,9.62804097 C5.79769084,9.92107189 5.62892005,10.297238 5.33511858,10.423587 C3.65607619,11.1351747 1.97744644,12.0142674 1.80950094,12.3916682 C1.64155543,13.0197092 1.34775396,15.8240808 1.221898,17.4559173 C1.17980846,17.7489482 0.928096525,18 0.592205518,18 L0.592205518,17.9991769 Z M11.2940891,13.1851564 C11.2940891,13.4160417 11.1059242,13.6037132 10.8744317,13.6037132 C10.6429392,13.6037132 10.4547743,13.4160417 10.4547743,13.1851564 C10.4547743,12.9546826 10.6429392,12.7670112 10.8744317,12.7670112 C11.1059242,12.7670112 11.2940891,12.9546826 11.2940891,13.1851564 L11.2940891,13.1851564 Z M11.6724823,12.6826413 C11.9658712,13.1431772 11.7979256,13.7292391 11.3361787,13.9798793 C10.8744317,14.230931 10.2868288,14.1054052 10.0355295,13.6448692 C9.78381753,13.1843333 9.9096735,12.5982714 10.3714205,12.3476312 C10.8331674,12.0965795 11.4207704,12.2221054 11.6724823,12.6826413 L11.6724823,12.6826413 Z M15.9953253,17.3287452 C15.9536484,16.8682093 15.6173448,12.8913024 15.3660455,12.0122096 C15.0718314,11.0499817 12.5959763,9.87785806 11.1269689,9.29179623 C10.7910779,9.16668191 10.4547743,9.33418694 10.3293309,9.62721785 C10.203475,9.96222791 10.3714205,10.297238 10.6652219,10.4227639 C10.7238172,10.4462228 10.7811745,10.4700933 10.8393571,10.4939638 C10.8892868,10.5688678 10.9272499,10.652826 10.9590234,10.7157948 C11.1269689,11.1763307 10.9590234,11.5948875 10.9165212,11.6780227 C10.6231324,11.6360435 10.3293309,11.7204134 10.0355295,11.8879184 C9.32207056,12.3064752 9.11162288,13.1851564 9.53128032,13.8967441 C9.99302729,14.6083318 10.9165212,14.817816 11.587478,14.4408268 C12.3013495,14.02227 12.5113846,13.1431772 12.0917271,12.4315895 C11.9237816,12.1809493 11.7145719,11.9710536 11.4620346,11.8455277 C11.5350724,11.662795 11.6720697,11.2569965 11.5383735,10.7952259 C12.8749226,11.4002195 14.0175297,12.0801171 14.1908396,12.3904335 C14.3583725,13.0176514 14.6521739,15.8224346 14.7784425,17.4550942 C14.7784425,17.7481251 15.0718314,17.9987653 15.3660455,17.9987653 L15.3668708,17.9979422 L15.4502245,17.9979422 C15.7852903,17.9567862 16.0378275,17.6637553 15.9953253,17.3287452 L15.9953253,17.3287452 Z M5.08340665,3.80899031 C5.08340665,2.26070057 6.1748461,1.33962868 7.93765492,1.33962868 C8.65111383,1.33962868 9.23871677,1.464743 9.70046375,1.71579477 C9.57460778,2.09237242 8.9449153,3.05542345 6.51114975,3.4320011 C6.1748461,3.47398025 5.96563635,3.76701116 6.0069006,4.1011981 C6.04940278,4.39422901 6.30070207,4.60371319 6.59450354,4.60371319 L6.67826997,4.60371319 C9.02826909,4.2275471 10.077619,3.30606365 10.539366,2.63604353 C10.7077241,2.97105359 10.7910779,3.38961039 10.7910779,3.85014633 L10.7910779,4.81278581 C10.7910779,6.82161149 9.11162288,8.28676605 7.93682964,8.28676605 C6.80412594,8.28676605 5.08258136,6.73806475 5.08258136,4.81278581 L5.08258136,3.80816718 L5.08340665,3.80899031 Z M7.93682964,9.62721785 C9.86717132,9.62721785 12.133404,7.53402232 12.133404,4.81360893 L12.133404,3.85096945 C12.133404,2.0096488 11.0415519,0 7.93682964,0 C5.04090447,0 3.74025526,1.92527895 3.74025526,3.85096945 L3.74025526,4.81360893 C3.69775308,7.49286629 6.0069006,9.62721785 7.93682964,9.62721785 L7.93682964,9.62721785 Z"></path>
                        </g>
                    </g>
                </g>
                <circle id="Oval-7" stroke="#0079C8" cx="11" cy="11" r="11"></circle>
            </g>
        </g>
    </g>
</svg>