<?xml version="1.0" encoding="UTF-8"?>
<svg width="20px" height="20px" viewBox="0 0 20 20" version="1.1" xmlns="http://www.w3.org/2000/svg" xmlns:xlink="http://www.w3.org/1999/xlink">
    <!-- Generator: Sketch 49.1 (51147) - http://www.bohemiancoding.com/sketch -->
    <title>Page 1</title>
    <desc>Created with Sketch.</desc>
    <defs>
        <polygon id="path-1" points="0 0.0003 19.9999098 0.0003 19.9999098 19.9881 0 19.9881"></polygon>
    </defs>
    <g id="Asesor" stroke="none" stroke-width="1" fill="none" fill-rule="evenodd">
        <g id="mensaje-agendado-asesor-copy-2" transform="translate(-1110.000000, -175.000000)">
            <g id="Page-1" transform="translate(1110.000000, 175.000000)">
                <mask id="mask-2" fill="white">
                    <use xlink:href="#path-1"></use>
                </mask>
                <g id="Clip-2"></g>
                <path d="M0.6769,12.0293 L0.6759,12.0293 C0.3029,12.0273 -0.0001,11.7243 -0.0001,11.3493 C-0.0001,11.1683 0.0709,10.9963 0.1979,10.8693 C0.3239,10.7423 0.4939,10.6713 0.6759,10.6713 L8.6349,10.6713 C9.0069,10.6713 9.3199,10.9803 9.3199,11.3433 L9.3199,19.3023 C9.3159,19.4883 9.2439,19.6563 9.1159,19.7853 C8.9829,19.9183 8.8179,19.9883 8.6349,19.9883 C8.2629,19.9883 7.9579,19.6833 7.9579,19.3103 L7.9579,12.9963 L1.4859,19.4663 C1.2199,19.7323 0.7899,19.7323 0.5249,19.4663 C0.2589,19.2033 0.2589,18.7713 0.5249,18.5063 L6.9949,12.0353 L0.6769,12.0293 Z M19.3229,7.9603 L19.3239,7.9613 C19.6979,7.9613 20.0019,8.2633 19.9999,8.6363 C19.9999,8.8183 19.9299,8.9903 19.8029,9.1173 C19.6759,9.2443 19.5059,9.3143 19.3229,9.3143 L11.3649,9.3143 C10.9929,9.3143 10.6809,9.0063 10.6809,8.6423 L10.6809,0.6833 C10.6869,0.4983 10.7569,0.3303 10.8839,0.2033 C11.0179,0.0713 11.1829,0.0003 11.3649,0.0003 C11.7379,0.0003 12.0419,0.3043 12.0419,0.6773 L12.0419,6.9923 L18.5129,0.5213 C18.7769,0.2563 19.2089,0.2563 19.4749,0.5213 C19.7399,0.7843 19.7399,1.2163 19.4749,1.4823 L13.0049,7.9543 L19.3229,7.9603 Z" id="Fill-1" fill="#0079C8"></path>
            </g>
        </g>
    </g>
</svg>