<?xml version="1.0" encoding="UTF-8" standalone="no"?>
<svg width="20px" height="20px" viewBox="0 0 20 20" version="1.1" xmlns="http://www.w3.org/2000/svg" xmlns:xlink="http://www.w3.org/1999/xlink">
    <!-- Generator: Sketch 46.2 (44496) - http://www.bohemiancoding.com/sketch -->
    <title>Mask</title>
    <desc>Created with Sketch.</desc>
    <defs>
        <path d="M16.3948248,15.9273102 L21.1724741,20.7049595 C21.3012282,20.8687146 21.3681053,21.0505953 21.3681053,21.2537267 C21.3681053,21.456858 21.3018532,21.6324885 21.1724741,21.7793681 C21.0905966,21.8612457 21.0043439,21.9181224 20.9168412,21.9512485 C20.8268383,21.9843745 20.7330854,22 20.6355824,22 C20.5380793,22 20.4443264,21.9843745 20.3543236,21.9512485 C20.2643208,21.9181224 20.1861933,21.8612457 20.1218163,21.7793681 L15.2704147,16.9298416 C14.5691428,17.4511078 13.7997437,17.8598706 12.9615925,18.1523798 C12.1215663,18.4455139 11.2390387,18.5917685 10.3090097,18.5917685 C9.15272352,18.5917685 8.07268977,18.3711366 7.07078346,17.9317479 C6.06887715,17.4923591 5.19009969,16.8967155 4.431951,16.1466921 C3.67630238,15.4004188 3.08003375,14.5197662 2.64877027,13.5097347 C2.2175068,12.4997031 2,11.4259196 2,10.2852589 C2,9.14459827 2.21500672,8.06831463 2.64877027,7.05890809 C3.08065877,6.04887653 3.67442733,5.16822401 4.431951,4.42007563 C5.18947467,3.67005219 6.06887715,3.08003375 7.07078346,2.64877027 C8.07456483,2.21500672 9.15272352,2 10.3108847,2 C11.4496703,2 12.5259539,2.21500672 13.5353605,2.6462702 C14.544767,3.07753367 15.4241695,3.66755211 16.1741929,4.41757555 C16.9242164,5.16572393 17.5142348,6.04637645 17.9454983,7.05640801 C18.3767618,8.06643958 18.5942686,9.14272321 18.5942686,10.2827588 C18.5942686,11.374668 18.3986375,12.4040751 18.0080003,13.3728554 C17.615488,14.3435107 17.0779712,15.1954124 16.3948248,15.9273102 L16.3948248,15.9273102 Z M3.51504735,10.2846339 C3.51504735,11.2277884 3.69067783,12.112816 4.04068877,12.9353417 C4.39069971,13.7578674 4.87446483,14.478515 5.49385918,15.0972843 C6.11325354,15.7166786 6.83390106,16.2048189 7.65580174,16.5642051 C8.47770243,16.9235914 9.36273009,17.1010969 10.3065096,17.1010969 C11.2340386,17.1010969 12.1153161,16.9210913 12.945342,16.5642051 C13.775368,16.207319 14.4960155,15.7166786 15.1072846,15.0972843 C15.7185537,14.4778899 16.2029438,13.7572424 16.560455,12.9353417 C16.9179662,12.113441 17.0973468,11.2284134 17.0973468,10.2846339 C17.0973468,9.35460483 16.9173412,8.47582737 16.560455,7.64392637 C16.2010688,6.81390043 15.7166786,6.09325291 15.1072846,5.48198381 C14.4960155,4.87071471 13.775368,4.38632457 12.945342,4.02693834 C12.1153161,3.66942717 11.2340386,3.49004656 10.3065096,3.49004656 C9.36148005,3.49004656 8.47832745,3.67005219 7.65580174,4.02693834 C6.83327604,4.38632457 6.11262852,4.87071471 5.49385918,5.48198381 C4.87508985,6.09325291 4.39007469,6.81390043 4.04068877,7.64392637 C3.69130285,8.47395231 3.51504735,9.35522985 3.51504735,10.2846339 Z" id="path-1"></path>
    </defs>
    <g id="Symbols" stroke="none" stroke-width="1" fill="none" fill-rule="evenodd">
        <g id="ico-/-search" transform="translate(-2.000000, -2.000000)">
            <mask id="mask-2" fill="white">
                <use xlink:href="#path-1"></use>
            </mask>
            <use id="Mask" fill="#0079C8" fill-rule="nonzero" xlink:href="#path-1"></use>
        </g>
    </g>
</svg>