<?xml version="1.0" encoding="UTF-8" standalone="no"?>
<svg width="40px" height="40px" viewBox="0 0 40 40" version="1.1" xmlns="http://www.w3.org/2000/svg" xmlns:xlink="http://www.w3.org/1999/xlink">
    <!-- Generator: Sketch 46.2 (44496) - http://www.bohemiancoding.com/sketch -->
    <title>Group</title>
    <desc>Created with Sketch.</desc>
    <defs></defs>
    <g id="Symbols" stroke="none" stroke-width="1" fill="none" fill-rule="evenodd">
        <g id="Ficha-paciente" transform="translate(-108.000000, -13.000000)">
            <g id="Group" transform="translate(108.000000, 13.000000)">
                <circle id="Oval" fill="#755296" cx="20" cy="20" r="20"></circle>
                <path d="M19.8028982,32.899214 C18.4747541,32.899214 17.4832998,32.1780827 16.2288067,31.2651354 L15.8540774,30.9972404 C15.7529086,30.9996685 15.6541679,31.0020965 15.5554271,31.0020965 C13.2358288,31.0020965 11.3289991,30.1223326 10.1886244,28.5262936 C8.77954525,26.5530972 8.61767517,23.6774751 9.73296007,20.4279331 C9.41164794,16.0801025 10.7422201,11.4797547 13.0415847,9.00557038 C14.0807906,7.88785743 15.2567768,7.29622226 16.4360004,7.29622226 C17.0227794,7.29622226 17.6119866,7.44028664 18.1914815,7.72598734 C19.241209,7.24523318 20.2933646,7 21.3204303,7 C23.2628713,7 25.1114277,7.87733587 26.6645712,9.53650427 C29.1233778,12.1644651 30.5397411,16.4515944 30.2710367,20.4578791 C31.3814655,23.6774751 31.2195955,26.5530972 29.8105163,28.5262936 C28.6725696,30.1223326 26.76574,31.0020965 24.4461416,31.0020965 C24.3474009,31.0020965 24.2486601,30.9996685 24.1474913,30.9972404 L23.8917366,31.1817723 C22.5635925,32.1400433 21.513865,32.899214 20.0926457,32.899214 L19.8020888,32.899214 L19.8028982,32.899214 Z M11.9602925,20.3850375 C11.8591237,20.7492452 12.0234218,21.621725 12.1124504,21.9252314 C12.3277376,22.5727117 12.6514777,23.3440227 12.901567,23.561738 L13.5110079,23.8401545 L13.6073206,24.5637138 C14.0022836,27.1989588 14.4571386,28.2057908 16.6982299,29.809114 C16.8374382,29.9054267 16.9839306,30.0114516 17.1360885,30.1223326 C17.9583886,30.7220613 18.9797888,31.4682824 19.9129699,31.4682824 L20.0950737,31.4682824 C21.0509166,31.4682824 22.0423709,30.7374389 22.8363436,30.1506599 C23.0006418,30.0292573 23.1576558,29.9127109 23.3090043,29.809114 C25.4643045,28.2260245 25.9822888,27.3430232 26.3999136,24.5637138 L26.4962263,23.8425826 L27.1234729,23.5520258 C27.4196952,23.3270264 27.761241,22.4569746 27.8769781,22.0037384 C20.6260076,19.8257764 17.7649538,13.4675193 17.206502,11.4546648 C16.8317727,13.4780409 15.959293,14.5981819 15.1119031,15.6859489 C14.2418513,16.8012338 13.3410443,17.9545582 12.9242288,20.1074303 L12.9137073,20.1584194 L11.9602925,20.3858469 L11.9602925,20.3850375 Z M10.6847562,22.2942952 C10.3278326,23.8927623 10.090693,26.5506691 11.8178468,28.2762043 C12.3746799,28.8330374 13.0828615,29.2093853 13.9804312,29.4246725 C12.8602902,28.1345679 12.4653271,26.7562442 12.1869106,24.8623641 L12.0986914,24.8316088 L11.9319652,24.6770229 C11.4738729,24.2901534 11.0546293,23.5010367 10.6904216,22.3347627 C10.6879936,22.3193851 10.6855655,22.3072448 10.6855655,22.2942952 L10.6847562,22.2942952 Z M27.775,24.8591267 C27.4941554,26.7611003 27.1000017,28.1345679 25.9871449,29.3785396 C26.8822865,29.1632523 27.58804,28.7869044 28.1448731,28.2324993 C29.872027,26.5053455 29.6397434,23.891953 29.2828199,22.3088635 L29.2755357,22.3315253 C29.0780542,23.1182139 28.6029655,24.1930313 28.0283267,24.6810696 L27.8964026,24.8129938 L27.775,24.8583174 L27.775,24.8591267 Z M18.4982253,10.8395585 C18.5815884,11.3454025 18.8826668,12.0964797 19.1254719,12.5796619 C19.606226,13.5864939 20.1824836,14.5293871 20.883381,15.4658056 C22.8104444,17.9901696 25.3623263,19.7658844 28.2687038,20.6003247 L28.8603389,20.7848566 L28.8069218,20.661026 L28.8020657,20.3599477 C28.8401052,19.5934928 28.8603389,18.6805455 28.7106091,17.6996128 C28.2857001,14.1635607 26.2955074,9.84405743 22.9213254,8.70530137 C22.4057692,8.53048168 21.8691699,8.44226248 21.3228583,8.44226248 C20.488418,8.44226248 19.6127008,8.65188424 18.7224154,9.06950907 L18.2772726,9.27184667 L18.4974159,10.8403678 L18.4982253,10.8395585 Z M16.1130696,8.75790915 C14.2442794,9.01609194 12.9185634,11.5606897 12.5567837,12.3344287 C11.6414084,14.3424272 11.1298989,16.7178707 11.1153306,19.0366597 L11.6948255,18.8925953 C12.1958134,17.1395423 12.9566029,16.0671529 14.1406825,14.5172469 C15.1224246,13.2578976 15.6250312,12.3797524 15.8451746,10.7966629 L16.148681,8.75790915 L16.1130696,8.75790915 Z M19.8660275,27.8715291 C19.0008319,27.8715291 18.2222368,27.6667634 17.7341985,27.3122679 C17.6127959,27.238617 17.5270048,27.1196425 17.4986775,26.9812436 C17.4711596,26.8468914 17.4986775,26.702827 17.5771845,26.5741403 C17.6734972,26.4146983 17.8329392,26.324051 18.0150431,26.324051 C18.1186399,26.324051 18.2246648,26.3548063 18.3209775,26.4122702 C18.6600954,26.6655969 19.2185472,26.8096613 19.8635995,26.8096613 C20.5337416,26.8096613 21.1002869,26.6048956 21.4062214,26.4146983 C21.5049622,26.356425 21.608559,26.3264791 21.7145839,26.3264791 C21.8966878,26.3264791 22.0585579,26.4179357 22.1524425,26.5765684 C22.3143126,26.8468914 22.2438991,27.1682035 21.9881444,27.3203614 C21.4466889,27.679713 20.7109894,27.8715291 19.8660275,27.8715291 L19.8660275,27.8715291 Z M22.855768,22.7548156 C22.3118845,22.7548156 21.8691699,22.3121009 21.8691699,21.7682174 C21.8691699,21.2243339 22.3118845,20.7816192 22.855768,20.7816192 C23.3972235,20.7816192 23.7938052,21.1765822 23.8423662,21.7601239 C23.8423662,22.3112916 23.3996515,22.7540062 22.855768,22.7540062 L22.855768,22.7548156 Z M16.9677436,22.7548156 C16.4238601,22.7548156 15.9811454,22.3121009 15.9811454,21.7682174 C15.9811454,21.2243339 16.4238601,20.7816192 16.9677436,20.7816192 C17.4832998,20.7816192 17.9082088,21.2041002 17.9543418,21.7601239 C17.9543418,22.3112916 17.5116271,22.7540062 16.9677436,22.7540062 L16.9677436,22.7548156 Z" id="Shape" fill="#FFFFFF" fill-rule="nonzero"></path>
            </g>
        </g>
    </g>
</svg>