<?xml version="1.0" encoding="UTF-8" standalone="no"?>
<svg width="16px" height="19px" viewBox="0 0 16 19" version="1.1" xmlns="http://www.w3.org/2000/svg" xmlns:xlink="http://www.w3.org/1999/xlink">
    <!-- Generator: Sketch 46.2 (44496) - http://www.bohemiancoding.com/sketch -->
    <title>Group 9</title>
    <desc>Created with Sketch.</desc>
    <defs>
        <polygon id="path-1" points="8.507328 0.47424 0.388928 0.47424 0.388928 9.800704 8.507328 9.800704 8.507328 0.47424"></polygon>
        <polygon id="path-3" points="0 8.916672 0 0.488794744 5.49599736 0.488794744 5.49599736 8.916672"></polygon>
        <polygon id="path-5" points="9.92917242 18.08608 15.4256638 18.08608 15.4256638 9.61487474 9.92917242 9.61487474"></polygon>
    </defs>
    <g id="ejecutivo" stroke="none" stroke-width="1" fill="none" fill-rule="evenodd">
        <g id="004-Nueva-reserva-de-hora/especialidad-3" transform="translate(-101.000000, -107.000000)">
            <g id="Group-9" transform="translate(101.000000, 107.000000)">
                <g id="Group-3" transform="translate(3.200000, 0.166080)">
                    <mask id="mask-2" fill="white">
                        <use xlink:href="#path-1"></use>
                    </mask>
                    <g id="Clip-2"></g>
                    <path d="M7.125568,4.187264 L7.125568,5.224064 C7.125568,7.037824 5.484608,8.549504 4.404928,8.549504 C3.325248,8.549504 1.684288,7.167104 1.684288,5.224064 L1.684288,4.274304 C1.684288,3.798784 1.770688,3.453824 1.942848,3.108224 C2.375488,3.755904 3.368768,4.619264 5.657408,5.007744 L5.743168,5.007744 C6.002368,5.007744 6.261568,4.792704 6.304448,4.533504 C6.347328,4.230784 6.132288,3.928064 5.830208,3.885184 C3.455168,3.496704 2.893888,2.546944 2.763968,2.200704 C3.195328,1.941504 3.756608,1.812224 4.447808,1.812224 C6.132288,1.812224 7.168448,2.719104 7.168448,4.187264 L7.125568,4.187264 Z M8.507328,5.137024 L8.507328,4.187264 C8.507328,2.331264 7.254848,0.473984 4.447808,0.473984 C1.468608,0.473984 0.388928,2.373504 0.388928,4.187264 L0.388928,5.137024 C0.388928,7.772544 2.591808,9.800704 4.447808,9.800704 C6.304448,9.800704 8.507328,7.727744 8.507328,5.137024 L8.507328,5.137024 Z" id="Fill-1" fill="#0079C8" mask="url(#mask-2)"></path>
                </g>
                <path d="M10.92992,14.198976 C10.49792,14.458176 9.93664,14.328896 9.67744,13.896896 C9.41888,13.465536 9.54752,12.904256 9.98016,12.644416 C10.41152,12.385216 10.9728,12.515136 11.232,12.946496 C11.53408,13.335616 11.36192,13.939776 10.92992,14.198976 M11.18912,14.588096 C11.8368,14.198976 12.096,13.335616 11.66336,12.644416 C11.53408,12.385216 11.3184,12.212416 11.0592,12.083136 C11.1456,11.867456 11.27488,11.391936 11.0592,10.874176 C11.01568,10.788416 10.9728,10.700736 10.92992,10.658496 C10.8864,10.614976 10.8864,10.571456 10.84352,10.529216 L10.41152,10.788416 C10.49792,10.874176 10.5408,10.959936 10.58432,11.090496 C10.75712,11.521856 10.58432,11.953216 10.5408,11.997376 C10.23872,11.953216 9.98016,12.039616 9.67744,12.169536 C9.02912,12.558656 8.76992,13.422016 9.20192,14.113216 C9.6352,14.760256 10.49792,15.020096 11.18912,14.588096" id="Fill-4" fill="#0079C8"></path>
                <path d="M10.454912,12.946496 C10.692992,12.946496 10.886912,13.140416 10.886912,13.378496 C10.886912,13.617216 10.692992,13.810496 10.454912,13.810496 C10.216192,13.810496 10.022912,13.617216 10.022912,13.378496 C10.022912,13.140416 10.216192,12.946496 10.454912,12.946496" id="Fill-6" fill="#0079C8"></path>
                <g id="Group-10" transform="translate(0.000000, 9.126080)">
                    <mask id="mask-4" fill="white">
                        <use xlink:href="#path-3"></use>
                    </mask>
                    <g id="Clip-9"></g>
                    <path d="M0.609344,8.916672 L0.565824,8.916672 C0.220864,8.916672 -0.038336,8.613952 0.004544,8.311232 C0.048064,7.879232 0.350144,4.036672 0.609344,3.172672 C0.911424,2.223552 3.287104,1.100992 4.668864,0.538432 C4.970304,0.409792 5.315904,0.538432 5.445824,0.840512 C5.575744,1.143872 5.445824,1.489472 5.143104,1.618752 C3.502784,2.266432 1.947584,3.172672 1.732544,3.518272 C1.558464,4.123712 1.300544,6.800192 1.170624,8.397632 C1.127104,8.700992 0.868544,8.916672 0.609344,8.916672" id="Fill-8" fill="#0079C8" mask="url(#mask-4)"></path>
                </g>
                <mask id="mask-6" fill="white">
                    <use xlink:href="#path-5"></use>
                </mask>
                <g id="Clip-12"></g>
                <path d="M14.816192,18.042752 C14.514112,18.042752 14.254912,17.827072 14.254912,17.523712 C14.125632,15.926272 13.866432,13.249792 13.693632,12.644352 C13.521472,12.298752 11.922752,11.392512 10.281792,10.744832 C9.979072,10.615552 9.849792,10.269952 9.979072,9.966592 C10.109632,9.664512 10.455232,9.535872 10.756672,9.664512 C12.139072,10.227072 14.556992,11.349632 14.816192,12.298752 C15.075392,13.162752 15.378112,17.005312 15.420992,17.437312 C15.463872,17.740032 15.205312,18.042752 14.902592,18.086272 L14.816192,18.042752 Z" id="Fill-11" fill="#0079C8" mask="url(#mask-6)"></path>
            </g>
        </g>
    </g>
</svg>