<?xml version="1.0" encoding="UTF-8" standalone="no"?>
<svg width="22px" height="21px" viewBox="0 0 22 21" version="1.1" xmlns="http://www.w3.org/2000/svg" xmlns:xlink="http://www.w3.org/1999/xlink">
    <!-- Generator: Sketch 46.2 (44496) - http://www.bohemiancoding.com/sketch -->
    <title>button OFF</title>
    <desc>Created with Sketch.</desc>
    <defs></defs>
    <g id="Symbols" stroke="none" stroke-width="1" fill="none" fill-rule="evenodd">
        <g id="Ficha-paciente" transform="translate(-37.000000, -478.000000)" fill="#C5017F">
            <g id="button-OFF" transform="translate(37.000000, 478.000000)">
                <g id="Group-3" transform="translate(0.000000, 0.329450)">
                    <path d="M20.2543,14.7656667 L10.8016333,14.7656667 C10.6412167,14.7656667 10.4853833,14.8225 10.36255,14.9279167 L6.7518,18.0235 L6.7518,15.4403333 C6.7518,15.0681667 6.44838333,14.7656667 6.07621667,14.7656667 L1.34988333,14.7656667 L1.34988333,1.93783333 L20.2543,1.93783333 L20.2543,14.7656667 Z M20.9298833,0.587583333 L0.675216667,0.587583333 C0.302133333,0.587583333 -0.000366666667,0.889166667 -0.000366666667,1.26225 L-0.000366666667,15.4403333 C-0.000366666667,15.8134167 0.302133333,16.1159167 0.675216667,16.1159167 L5.40155,16.1159167 L5.40155,19.4910833 C5.40155,19.7550833 5.55463333,19.99525 5.7948,20.10525 C5.88463333,20.1465 5.98088333,20.1666667 6.07621667,20.1666667 C6.2348,20.1666667 6.39063333,20.1116667 6.51621667,20.0044167 L11.0528,16.1159167 L20.9298833,16.1159167 C21.3029667,16.1159167 21.6054667,15.8134167 21.6054667,15.4403333 L21.6054667,1.26225 C21.6054667,0.889166667 21.3029667,0.587583333 20.9298833,0.587583333 L20.9298833,0.587583333 Z" id="Fill-1"></path>
                </g>
                <path d="M7.96170833,11.5215833 C8.094625,11.6535833 8.26695833,11.7186667 8.43929167,11.7186667 C8.61254167,11.7186667 8.784875,11.6535833 8.916875,11.5215833 L10.8024583,9.636 L12.6880417,11.5215833 C12.8200417,11.6535833 12.992375,11.7186667 13.165625,11.7186667 C13.3379583,11.7186667 13.5112083,11.6535833 13.6422917,11.5215833 C13.9062917,11.2575833 13.9062917,10.8304167 13.6422917,10.5664167 L11.757625,8.68083333 L13.6422917,6.79525 C13.9062917,6.53216667 13.9062917,6.10408333 13.6422917,5.841 C13.3792083,5.577 12.951125,5.577 12.6880417,5.841 L10.8024583,7.72658333 L8.916875,5.841 C8.652875,5.577 8.22570833,5.577 7.96170833,5.841 C7.698625,6.10408333 7.698625,6.53216667 7.96170833,6.79525 L9.84820833,8.68083333 L7.96170833,10.5664167 C7.698625,10.8304167 7.698625,11.2575833 7.96170833,11.5215833" id="Fill-4"></path>
            </g>
        </g>
    </g>
</svg>