<?xml version="1.0" encoding="UTF-8" standalone="no"?>
<svg width="25px" height="25px" viewBox="0 0 25 25" version="1.1" xmlns="http://www.w3.org/2000/svg" xmlns:xlink="http://www.w3.org/1999/xlink">
    <!-- Generator: Sketch 46.2 (44496) - http://www.bohemiancoding.com/sketch -->
    <title>Fill 1</title>
    <desc>Created with Sketch.</desc>
    <defs></defs>
    <g id="ejecutivo" stroke="none" stroke-width="1" fill="none" fill-rule="evenodd">
        <g id="004-Nueva-reserva-de-hora/especialidad-4" transform="translate(-895.000000, -525.000000)" fill="#0079C8">
            <g id="Group-22" transform="translate(856.000000, 174.000000)">
                <g id="Group-10">
                    <g id="Group-14" transform="translate(39.000000, 351.000000)">
                        <path d="M12.5,3.96875 C11.9855469,3.96875 11.5667969,3.55039062 11.5667969,3.0359375 L11.5667969,0.933203125 C11.5667969,0.41875 11.9855469,0 12.5,0 C13.0144531,0 13.4332031,0.41875 13.4332031,0.933203125 L13.4332031,3.0359375 C13.4332031,3.55039062 13.0144531,3.96875 12.5,3.96875 L12.5,3.96875 Z M5.79023438,6.71640625 C5.53867188,6.71640625 5.29140625,6.6265625 5.11210938,6.46953125 L3.64570313,5.00273437 C3.2734375,4.63085937 3.2734375,4.06992187 3.64570313,3.69804687 C3.82695313,3.51679687 4.05859375,3.41679687 4.29804688,3.41679687 C4.5375,3.41679687 4.76914063,3.51679687 4.95078125,3.69804687 L6.42304687,5.16992188 C6.79492188,5.54179687 6.79492188,6.103125 6.42304687,6.475 C6.26953125,6.62851562 6.0390625,6.71640625 5.79023438,6.71640625 L5.79023438,6.71640625 Z M19.1773438,6.75625 C18.9378906,6.75625 18.70625,6.65625 18.525,6.475 C18.34375,6.29375 18.2441406,6.06171875 18.2441406,5.82265625 C18.2441406,5.58320312 18.34375,5.35117187 18.525,5.16992188 L19.9972656,3.69804687 C20.1785156,3.51679688 20.4101562,3.41679688 20.6496094,3.41679688 C20.8894531,3.41679688 21.1207031,3.51679688 21.3023438,3.69804687 C21.4835938,3.87929687 21.5832031,4.1109375 21.5832031,4.35078125 C21.5832031,4.58984375 21.4835938,4.82148437 21.3023438,5.00273437 L19.8300781,6.475 C19.6488281,6.65625 19.4167969,6.75625 19.1773438,6.75625 L19.1773438,6.75625 Z M0.933203125,13.4335937 C0.41875,13.4335937 0,13.0144531 0,12.5 C0,11.9851563 0.41875,11.5667969 0.933203125,11.5667969 L3.0359375,11.5667969 C3.55039062,11.5667969 3.96914062,11.9851563 3.96914062,12.5 C3.96914062,13.0144531 3.55039062,13.4335937 3.0359375,13.4335937 L0.933203125,13.4335937 Z M21.9640625,13.4335937 C21.4496094,13.4335937 21.0308594,13.0144531 21.0308594,12.5 C21.0308594,11.9851563 21.4496094,11.5667969 21.9640625,11.5667969 L24.0667969,11.5667969 C24.58125,11.5667969 25,11.9851563 25,12.5 C25,13.0144531 24.58125,13.4335937 24.0667969,13.4335937 L21.9640625,13.4335937 Z M12.5,8.17578125 C10.1152344,8.17578125 8.17539063,10.1152344 8.17539063,12.5 C8.17539063,14.8847656 10.1152344,16.8246094 12.5,16.8246094 C14.884375,16.8246094 16.8246094,14.8847656 16.8246094,12.5 C16.8246094,10.1152344 14.884375,8.17578125 12.5,8.17578125 L12.5,8.17578125 Z M12.5,18.690625 C9.08632812,18.690625 6.30898437,15.9136719 6.30898437,12.5 C6.30898437,9.08632812 9.08632812,6.30898437 12.5,6.30898437 C15.9136719,6.30898437 18.6910156,9.08632812 18.6910156,12.5 C18.6910156,15.9136719 15.9136719,18.690625 12.5,18.690625 L12.5,18.690625 Z M4.29804688,21.5835938 C4.05859375,21.5835938 3.82695313,21.4835938 3.64570313,21.3023438 C3.2734375,20.9304688 3.2734375,20.3691406 3.64570313,19.996875 L5.11796875,18.525 C5.29921875,18.3441406 5.53085938,18.24375 5.7703125,18.24375 C6.01015625,18.24375 6.24179688,18.3441406 6.42304688,18.525 C6.60429688,18.70625 6.70390625,18.9378906 6.70390625,19.1777344 C6.70390625,19.4167969 6.60429688,19.6488281 6.42304688,19.8300781 L4.95078125,21.3023438 C4.76914063,21.4835938 4.5375,21.5835938 4.29804688,21.5835938 L4.29804688,21.5835938 Z M20.6496094,21.5835938 C20.4101562,21.5835938 20.1785156,21.4835938 19.9972656,21.3023438 L18.525,19.8300781 C18.34375,19.6488281 18.2441406,19.4167969 18.2441406,19.1777344 C18.2441406,18.9378906 18.34375,18.70625 18.525,18.525 C18.70625,18.3441406 18.9378906,18.24375 19.1773438,18.24375 C19.4167969,18.24375 19.6488281,18.3441406 19.8300781,18.525 L21.3023438,19.996875 C21.4835938,20.1785156 21.5832031,20.4101563 21.5832031,20.6496094 C21.5832031,20.8890625 21.4835938,21.1210938 21.3023438,21.3023438 C21.1207031,21.4835938 20.8894531,21.5835938 20.6496094,21.5835938 L20.6496094,21.5835938 Z M12.5,24.9992187 C11.9855469,24.9992187 11.5667969,24.5804687 11.5667969,24.065625 L11.5667969,21.9628906 C11.5667969,21.4488281 11.9855469,21.0304688 12.5,21.0304688 C13.0144531,21.0304688 13.4332031,21.4488281 13.4332031,21.9628906 L13.4332031,24.065625 C13.4332031,24.5804687 13.0144531,24.9992187 12.5,24.9992187 L12.5,24.9992187 Z" id="Fill-1"></path>
                    </g>
                </g>
            </g>
        </g>
    </g>
</svg>