<?xml version="1.0" encoding="UTF-8" standalone="no"?>
<svg width="31px" height="24px" viewBox="0 0 31 24" version="1.1" xmlns="http://www.w3.org/2000/svg" xmlns:xlink="http://www.w3.org/1999/xlink">
    <!-- Generator: Sketch 46.2 (44496) - http://www.bohemiancoding.com/sketch -->
    <title>evening</title>
    <desc>Created with Sketch.</desc>
    <defs></defs>
    <g id="ejecutivo" stroke="none" stroke-width="1" fill="none" fill-rule="evenodd">
        <g id="004-mas-horas-de-un-examen-asignado-2" transform="translate(-894.000000, -525.000000)" fill-rule="nonzero" fill="#0079C8">
            <g id="Group-14" transform="translate(856.000000, 174.000000)">
                <g id="Group-22">
                    <g id="Group-10">
                        <g id="Group-20" transform="translate(38.000000, 351.000000)">
                            <g id="evening">
                                <path d="M8.9910303,23.2358788 C8.352,23.2358788 7.83321212,22.7141818 7.83321212,22.0780606 C7.83321212,21.4390303 8.35393939,20.9202424 8.9910303,20.9202424 L22.0421818,20.9202424 C22.6812121,20.9202424 23.2,21.4419394 23.2,22.0780606 C23.2,22.7170909 22.678303,23.2358788 22.0421818,23.2358788 L8.9910303,23.2358788 Z M20.2666667,18.0150303 C20.681697,17.2334545 20.8814545,16.4237576 20.8814545,15.5510303 C20.8814545,12.5905455 18.4727273,10.1847273 15.5151515,10.1847273 C12.5575758,10.1847273 10.1488485,12.5934545 10.1488485,15.5510303 C10.1488485,16.4237576 10.3486061,17.2324848 10.7636364,18.0150303 L8.25115152,18.0150303 C8.03878788,17.312 7.83321212,16.4761212 7.83321212,15.5510303 C7.83321212,11.3144242 11.2785455,7.86618182 15.5180606,7.86618182 C19.7575758,7.86618182 23.2029091,11.3144242 23.2029091,15.5510303 C23.2029091,16.5052121 22.9847273,17.4021818 22.7849697,18.0150303 L20.2666667,18.0150303 Z M27.2610909,16.7088485 C26.6220606,16.7088485 26.1032727,16.1871515 26.1032727,15.5510303 C26.1032727,14.912 26.6249697,14.3932121 27.2610909,14.3932121 L29.8734545,14.3932121 C30.5124848,14.3932121 31.0312727,14.9149091 31.0312727,15.5510303 C31.0312727,16.1900606 30.5095758,16.7088485 29.8734545,16.7088485 L27.2610909,16.7088485 Z M1.15781818,16.7088485 C0.52169697,16.7088485 0,16.1910303 0,15.5510303 C0,14.9110303 0.520727273,14.3932121 1.15781818,14.3932121 L3.76727273,14.3932121 C4.40630303,14.3932121 4.92509091,14.9149091 4.92509091,15.5510303 C4.92509091,16.1900606 4.40436364,16.7088485 3.76727273,16.7088485 L1.15781818,16.7088485 Z M23.8031515,8.42084848 C23.5064242,8.42084848 23.2184242,8.29672727 22.9944242,8.07272727 C22.5338182,7.61212121 22.5338182,6.91490909 22.9944242,6.45430303 L24.8213333,4.62739394 C25.0453333,4.40339394 25.3333333,4.27927273 25.6300606,4.27927273 C25.9267879,4.27927273 26.2147879,4.40339394 26.4387879,4.62739394 C26.6627879,4.85139394 26.7869091,5.13939394 26.7869091,5.43612121 C26.7869091,5.73284848 26.6627879,6.02084848 26.4387879,6.24484848 L24.6118788,8.07175758 C24.3878788,8.29575758 24.0998788,8.41987879 23.8031515,8.41987879 L23.8031515,8.42084848 Z M7.18739394,8.42084848 C6.87806061,8.42084848 6.57551515,8.29381818 6.35442424,8.07272727 L4.52751515,6.24581818 C4.06690909,5.78521212 4.06690909,5.088 4.52751515,4.62739394 C4.75151515,4.40339394 5.03951515,4.27927273 5.33624242,4.27927273 C5.6329697,4.27927273 5.9209697,4.40339394 6.1449697,4.62739394 L7.97187879,6.45430303 C8.43248485,6.91490909 8.43248485,7.61212121 7.97187879,8.07272727 C7.7750303,8.29672727 7.48993939,8.42084848 7.18739394,8.42084848 Z M15.5151515,4.96387879 C14.8761212,4.96387879 14.3573333,4.44315152 14.3573333,3.80606061 L14.3573333,1.19660606 C14.3573333,0.557575758 14.8780606,0.0387878788 15.5151515,0.0387878788 C16.1522424,0.0387878788 16.6729697,0.559515152 16.6729697,1.19660606 L16.6729697,3.80606061 C16.6729697,4.44509091 16.1551515,4.96387879 15.5151515,4.96387879 Z" id="Shape"></path>
                            </g>
                        </g>
                    </g>
                </g>
            </g>
        </g>
    </g>
</svg>