<?xml version="1.0" encoding="UTF-8" standalone="no"?>
<svg width="29px" height="25px" viewBox="0 0 29 25" version="1.1" xmlns="http://www.w3.org/2000/svg" xmlns:xlink="http://www.w3.org/1999/xlink">
    <!-- Generator: Sketch 46.2 (44496) - http://www.bohemiancoding.com/sketch -->
    <title>Page 1</title>
    <desc>Created with Sketch.</desc>
    <defs>
        <polygon id="path-1" points="0 24.1424 28.348 24.1424 28.348 0.0004 0 0.0004"></polygon>
    </defs>
    <g id="ejecutivo" stroke="none" stroke-width="1" fill="none" fill-rule="evenodd">
        <g id="004-mas-horas-de-un-examen-asignado-2" transform="translate(-245.000000, -501.000000)">
            <g id="Page-1" transform="translate(245.000000, 501.000000)">
                <path d="M12.1333,8.0289 C11.6663,8.0289 11.2883,7.6519 11.2883,7.1869 L11.2883,3.9939 C11.2883,3.5289 11.6663,3.1519 12.1333,3.1519 L12.4393,3.1519 C12.9053,3.1519 13.2843,3.5289 13.2843,3.9939 L13.2843,7.1869 C13.2843,7.6519 12.9053,8.0289 12.4393,8.0289 L12.1333,8.0289 Z" id="Fill-1" fill="#0079C8"></path>
                <path d="M22.9682,8.0079 L23.2752,8.0079 C23.7412,8.0079 24.1192,7.6309 24.1192,7.1649 L24.1192,3.9729 C24.1192,3.5079 23.7412,3.1309 23.2752,3.1309 L22.9682,3.1309 C22.5012,3.1309 22.1232,3.5079 22.1232,3.9729 L22.1232,7.1649 C22.1232,7.6309 22.5012,8.0079 22.9682,8.0079" id="Fill-3" fill="#0079C8"></path>
                <path d="M26.9751,22.7741 L8.2621,22.7741 L8.2621,10.2821 L26.9751,10.2821 L26.9761,22.7741 L26.9751,22.7741 Z M26.9751,4.8621 L24.8061,4.8621 L24.8061,7.3861 C24.8061,8.2281 24.1201,8.6921 23.2761,8.6921 L22.9671,8.6921 C22.1231,8.6921 21.4371,8.0081 21.4371,7.1651 L21.4371,4.8621 L13.9721,4.8621 L13.9721,7.1871 C13.9721,8.0281 13.2841,8.7131 12.4401,8.7131 L12.1331,8.7131 C11.2881,8.7131 10.6011,8.0281 10.6011,7.1871 L10.6011,4.8621 L8.2621,4.8621 C7.5051,4.8621 6.8891,5.4771 6.8891,6.2321 L6.8891,22.7741 C6.8891,23.5291 7.5051,24.1421 8.2621,24.1421 L26.9751,24.1421 C27.7331,24.1421 28.3471,23.5291 28.3471,22.7741 L28.3471,6.2321 C28.3471,5.4771 27.7331,4.8621 26.9751,4.8621 L26.9751,4.8621 Z" id="Fill-5" fill="#0079C8"></path>
                <path d="M16.4878,14.1183 L18.7498,14.1183 C18.8398,14.1183 18.9118,14.0353 18.9118,13.9333 L18.9118,11.6963 C18.9118,11.5943 18.8398,11.5113 18.7498,11.5113 L16.4878,11.5113 C16.3988,11.5113 16.3268,11.5943 16.3268,11.6963 L16.3268,13.9333 C16.3268,14.0353 16.3988,14.1183 16.4878,14.1183" id="Fill-7" fill="#0079C8"></path>
                <path d="M19.9751,14.1183 L22.2361,14.1183 C22.3261,14.1183 22.3981,14.0353 22.3981,13.9333 L22.3981,11.6963 C22.3981,11.5943 22.3261,11.5113 22.2361,11.5113 L19.9751,11.5113 C19.8861,11.5113 19.8131,11.5943 19.8131,11.6963 L19.8131,13.9333 C19.8131,14.0353 19.8861,14.1183 19.9751,14.1183" id="Fill-9" fill="#0079C8"></path>
                <path d="M23.4624,14.1183 L25.7234,14.1183 C25.8134,14.1183 25.8854,14.0353 25.8854,13.9333 L25.8854,11.6963 C25.8854,11.5943 25.8134,11.5113 25.7234,11.5113 L23.4624,11.5113 C23.3734,11.5113 23.3004,11.5943 23.3004,11.6963 L23.3004,13.9333 C23.3004,14.0353 23.3734,14.1183 23.4624,14.1183" id="Fill-11" fill="#0079C8"></path>
                <path d="M9.5141,21.441 L11.7741,21.441 C11.8651,21.441 11.9361,21.358 11.9361,21.255 L11.9361,19.02 C11.9361,18.917 11.8651,18.834 11.7741,18.834 L9.5141,18.834 C9.4251,18.834 9.3521,18.917 9.3521,19.02 L9.3521,21.255 C9.3521,21.358 9.4251,21.441 9.5141,21.441" id="Fill-13" fill="#0079C8"></path>
                <path d="M13.0014,21.441 L15.2614,21.441 C15.3524,21.441 15.4234,21.358 15.4234,21.255 L15.4234,19.02 C15.4234,18.917 15.3524,18.834 15.2614,18.834 L13.0014,18.834 C12.9124,18.834 12.8394,18.917 12.8394,19.02 L12.8394,21.255 C12.8394,21.358 12.9124,21.441 13.0014,21.441" id="Fill-15" fill="#0079C8"></path>
                <path d="M16.4878,21.441 L18.7498,21.441 C18.8398,21.441 18.9118,21.358 18.9118,21.255 L18.9118,19.02 C18.9118,18.917 18.8398,18.834 18.7498,18.834 L16.4878,18.834 C16.3988,18.834 16.3268,18.917 16.3268,19.02 L16.3268,21.255 C16.3268,21.358 16.3988,21.441 16.4878,21.441" id="Fill-17" fill="#0079C8"></path>
                <path d="M19.9751,21.441 L22.2361,21.441 C22.3261,21.441 22.3981,21.358 22.3981,21.255 L22.3981,19.02 C22.3981,18.917 22.3261,18.834 22.2361,18.834 L19.9751,18.834 C19.8861,18.834 19.8131,18.917 19.8131,19.02 L19.8131,21.255 C19.8131,21.358 19.8861,21.441 19.9751,21.441" id="Fill-19" fill="#0079C8"></path>
                <path d="M9.5141,17.7799 L11.7741,17.7799 C11.8651,17.7799 11.9361,17.6969 11.9361,17.5939 L11.9361,15.3589 C11.9361,15.2559 11.8651,15.1729 11.7741,15.1729 L9.5141,15.1729 C9.4251,15.1729 9.3521,15.2559 9.3521,15.3589 L9.3521,17.5939 C9.3521,17.6969 9.4251,17.7799 9.5141,17.7799" id="Fill-21" fill="#0079C8"></path>
                <path d="M13.0014,17.7799 L15.2614,17.7799 C15.3524,17.7799 15.4234,17.6969 15.4234,17.5939 L15.4234,15.3589 C15.4234,15.2559 15.3524,15.1729 15.2614,15.1729 L13.0014,15.1729 C12.9124,15.1729 12.8394,15.2559 12.8394,15.3589 L12.8394,17.5939 C12.8394,17.6969 12.9124,17.7799 13.0014,17.7799" id="Fill-23" fill="#0079C8"></path>
                <path d="M16.4878,17.7799 L18.7498,17.7799 C18.8398,17.7799 18.9118,17.6969 18.9118,17.5939 L18.9118,15.3589 C18.9118,15.2559 18.8398,15.1729 18.7498,15.1729 L16.4878,15.1729 C16.3988,15.1729 16.3268,15.2559 16.3268,15.3589 L16.3268,17.5939 C16.3268,17.6969 16.3988,17.7799 16.4878,17.7799" id="Fill-25" fill="#0079C8"></path>
                <path d="M19.9751,17.7799 L22.2361,17.7799 C22.3261,17.7799 22.3981,17.6969 22.3981,17.5939 L22.3981,15.3589 C22.3981,15.2559 22.3261,15.1729 22.2361,15.1729 L19.9751,15.1729 C19.8861,15.1729 19.8131,15.2559 19.8131,15.3589 L19.8131,17.5939 C19.8131,17.6969 19.8861,17.7799 19.9751,17.7799" id="Fill-27" fill="#0079C8"></path>
                <path d="M23.4624,17.7799 L25.7234,17.7799 C25.8134,17.7799 25.8854,17.6969 25.8854,17.5939 L25.8854,15.3589 C25.8854,15.2559 25.8134,15.1729 25.7234,15.1729 L23.4624,15.1729 C23.3734,15.1729 23.3004,15.2559 23.3004,15.3589 L23.3004,17.5939 C23.3004,17.6969 23.3734,17.7799 23.4624,17.7799" id="Fill-29" fill="#0079C8"></path>
                <path d="M7.4858,0.4235 C3.5988,0.4235 0.4238,3.5895 0.4238,7.4635 C0.4238,11.3375 3.5988,14.5025 7.4858,14.5025 C11.3728,14.5025 14.5478,11.3375 14.5478,7.4635 C14.5478,3.5895 11.3728,0.4235 7.4858,0.4235" id="Fill-31" fill="#FEFEFE"></path>
                <path d="M7.4858,0.4235 C3.5988,0.4235 0.4238,3.5895 0.4238,7.4635 C0.4238,11.3375 3.5988,14.5025 7.4858,14.5025 C11.3728,14.5025 14.5478,11.3375 14.5478,7.4635 C14.5478,3.5895 11.3728,0.4235 7.4858,0.4235 Z" id="Stroke-33" stroke="#FEFEFE" stroke-width="0.847"></path>
                <path d="M7.4858,13.191 C4.3818,13.191 1.8448,10.663 1.8448,7.569 C1.8448,4.474 4.3818,1.946 7.4858,1.946 C10.5898,1.946 13.1258,4.474 13.1258,7.569 C13.1258,10.663 10.5898,13.191 7.4858,13.191 M7.4858,0.529 C3.5988,0.529 0.4238,3.694 0.4238,7.569 C0.4238,11.443 3.5988,14.608 7.4858,14.608 C11.3728,14.608 14.5478,11.443 14.5478,7.569 C14.5478,3.694 11.3728,0.529 7.4858,0.529" id="Fill-35" fill="#0079C8"></path>
                <mask id="mask-2" fill="white">
                    <use xlink:href="#path-1"></use>
                </mask>
                <g id="Clip-38"></g>
                <polygon id="Fill-37" fill="#0079C8" mask="url(#mask-2)" points="6.735 11.2014 8.239 11.2014 8.239 3.7224 6.735 3.7224"></polygon>
                <polygon id="Fill-39" fill="#0079C8" mask="url(#mask-2)" points="3.735 8.2134 11.238 8.2134 11.238 6.7134 3.735 6.7134"></polygon>
            </g>
        </g>
    </g>
</svg>