<?xml version="1.0" encoding="UTF-8" standalone="no"?>
<svg width="23px" height="24px" viewBox="0 0 23 24" version="1.1" xmlns="http://www.w3.org/2000/svg" xmlns:xlink="http://www.w3.org/1999/xlink">
    <!-- Generator: Sketch 46.2 (44496) - http://www.bohemiancoding.com/sketch -->
    <title>Page 1</title>
    <desc>Created with Sketch.</desc>
    <defs></defs>
    <g id="Symbols" stroke="none" stroke-width="1" fill="none" fill-rule="evenodd">
        <g id="Ficha-paciente" transform="translate(-36.000000, -535.000000)" fill="#D9DADA">
            <g id="Page-1" transform="translate(36.000000, 535.000000)">
                <path d="M11.4102207,22.0382828 L11.5601172,22.0382828 C11.7100138,22.0382828 11.972531,22.0010069 12.3468759,21.7392828 C13.2097724,21.1769724 14.0346,20.4647655 14.1456345,20.2395241 L14.1456345,20.2030414 C14.1456345,20.1649724 14.1456345,20.0896276 14.0346,19.9770069 L11.4855655,17.3550069 C11.4474966,17.317731 11.4474966,17.317731 11.4102207,17.2796621 C11.4102207,17.2796621 11.2976,17.1297655 11.0731517,17.1297655 C10.9978069,17.1297655 10.9232552,17.1297655 10.8479103,17.1678345 L8.82391034,17.7658345 C8.60025517,17.8411793 8.33773793,17.7658345 8.18784138,17.5794552 C8.11328966,17.5041103 6.68966897,15.7434207 5.90211724,14.3943517 C5.00273793,13.1198345 4.02801379,11.0974207 3.95346207,10.9848 C3.84163448,10.7595586 3.87891034,10.4978345 4.02801379,10.309869 L5.41435862,8.73635172 C5.67687586,8.43655862 5.56425517,8.17483448 5.56425517,8.17483448 C5.56425517,8.13755862 5.52697931,8.13755862 5.52697931,8.09948966 L4.17791034,4.68914483 C4.10335862,4.54083448 4.02801379,4.50276552 4.02801379,4.50276552 L3.95346207,4.50276552 C3.72822069,4.50276552 2.75508276,4.98893793 1.89297931,5.47669655 C1.25611724,5.85183448 1.21884138,6.18969655 1.21884138,6.22617931 L1.21884138,6.26424828 C1.06894483,8.62373103 2.15470345,11.7723517 4.36587586,15.1065586 C4.40394483,15.1811103 4.44122069,15.2191793 4.47849655,15.2564552 C4.51577241,15.2945241 4.55304828,15.4063517 4.6283931,15.5189724 C7.36222069,19.8271103 9.79942759,21.4386966 11.335669,22.0010069 C11.3721517,22.0010069 11.3721517,22.0010069 11.4102207,22.0382828 M11.5601172,23.274731 L11.5601172,23.274731 C11.2230483,23.274731 10.9978069,23.2001793 10.9232552,23.1621103 C8.45115172,22.2262483 5.97666897,19.9024552 3.65366897,16.1931103 C3.57911724,16.0804897 3.54104828,16.0059379 3.50377241,15.9686621 C3.50377241,15.9686621 3.50377241,15.9305931 3.46570345,15.9305931 C3.46570345,15.8925241 3.42922069,15.8560414 3.39115172,15.7806966 C0.994393103,12.1459034 -0.168296552,8.84897241 0.0196689655,6.18969655 C0.0196689655,5.92717931 0.131496552,5.06428276 1.2933931,4.39093793 C1.85491034,4.05307586 3.27932414,3.22824828 3.99153103,3.22824828 L4.14142759,3.22824828 C4.36587586,3.26552414 5.00273793,3.37814483 5.3398069,4.16490345 L6.6516,7.57445517 C6.83956552,7.9495931 6.98866897,8.77362759 6.3518069,9.48583448 L5.22797931,10.7595586 C5.56425517,11.3972138 6.23918621,12.7454897 6.87525517,13.6075931 C6.87525517,13.6075931 6.91332414,13.6456621 6.91332414,13.6829379 C6.91332414,13.7202138 6.9506,13.7202138 6.9506,13.7582828 C7.51370345,14.6941448 8.41387586,15.8925241 8.86197931,16.4556276 L10.4735655,15.9686621 C10.6607379,15.9305931 10.8479103,15.8925241 11.0350828,15.8925241 C11.7853586,15.8925241 12.2350483,16.3430069 12.3468759,16.4929034 L14.8570483,19.1164897 C15.3820828,19.7152828 15.3440138,20.314869 15.2321862,20.6146621 C15.0077379,21.2515241 13.9211862,22.1136276 12.9829448,22.7132138 C12.4206345,23.1621103 11.8979793,23.274731 11.5601172,23.274731" id="Fill-1"></path>
                <g id="Group-5" transform="translate(8.724138, 0.274810)">
                    <path d="M9.95574828,11.5716172 L6.47005862,14.2697552 L6.47005862,12.3964448 C3.80998966,12.0966517 1.71223103,9.81092759 1.71223103,7.07472069 C1.71223103,4.11565172 4.10978276,1.71651379 7.07043793,1.71651379 C10.0310931,1.71651379 12.4286448,4.11565172 12.4286448,7.07472069 C12.4286448,8.9861 11.4539207,10.6357552 9.95574828,11.5716172 M7.07043793,0.518134483 C3.43643793,0.518134483 0.513058621,3.47720345 0.513058621,7.07472069 C0.513058621,10.0726517 2.53705862,12.5836172 5.27247241,13.3703759 L5.27247241,15.4689276 C5.27247241,15.694169 5.42078276,15.9186172 5.60874828,16.0312379 C5.6833,16.0685138 5.79671379,16.1057897 5.87126552,16.1057897 C6.02116207,16.1057897 6.13298966,16.0685138 6.24561034,15.9939621 L10.7797828,12.5455483 L10.8178517,12.5082724 C12.5412655,11.3091 13.6650931,9.36044483 13.6650931,7.11278966 C13.6650931,3.47720345 10.7044379,0.518134483 7.07043793,0.518134483" id="Fill-3"></path>
                </g>
                <path d="M13.9398241,9.05549655 C14.054031,9.16970345 14.2031345,9.22601379 14.353031,9.22601379 C14.5021345,9.22601379 14.6512379,9.16970345 14.7654448,9.05549655 L15.8123414,8.0078069 L16.8608241,9.05549655 C16.9742379,9.16970345 17.1241345,9.22601379 17.2732379,9.22601379 C17.4231345,9.22601379 17.5722379,9.16970345 17.6864448,9.05549655 C17.9148586,8.82708276 17.9148586,8.45749655 17.6864448,8.22908276 L16.6387552,7.18218621 L17.6864448,6.13449655 C17.9148586,5.90608276 17.9148586,5.53649655 17.6864448,5.30808276 C17.4588241,5.08046207 17.0884448,5.08046207 16.8608241,5.30808276 L15.8123414,6.35577241 L14.7654448,5.30808276 C14.537031,5.08046207 14.1674448,5.08046207 13.9398241,5.30808276 C13.7114103,5.53649655 13.7114103,5.90608276 13.9398241,6.13449655 L14.9867207,7.18218621 L13.9398241,8.22908276 C13.7114103,8.45749655 13.7114103,8.82708276 13.9398241,9.05549655" id="Fill-6"></path>
            </g>
        </g>
    </g>
</svg>