<?xml version="1.0" encoding="UTF-8" standalone="no"?>
<svg width="27px" height="23px" viewBox="0 0 27 23" version="1.1" xmlns="http://www.w3.org/2000/svg" xmlns:xlink="http://www.w3.org/1999/xlink">
    <!-- Generator: Sketch 46.2 (44496) - http://www.bohemiancoding.com/sketch -->
    <title>Fill 1</title>
    <desc>Created with Sketch.</desc>
    <defs></defs>
    <g id="ejecutivo" stroke="none" stroke-width="1" fill="none" fill-rule="evenodd">
        <g id="004-mas-horas-de-un-examen-asignado-2" transform="translate(-1061.000000, -527.000000)" fill="#0079C8">
            <g id="Group-14" transform="translate(856.000000, 174.000000)">
                <g id="Group-22">
                    <g id="Group-10">
                        <g id="Group-21" transform="translate(205.000000, 353.000000)">
                            <path d="M7.79144063,1.30005 C6.0301125,1.30005 4.32025313,1.61265937 2.977425,2.180925 C2.33659688,2.50112812 1.56119063,3.01497187 1.4367375,3.67900312 C1.3726125,4.0186125 1.48314375,4.34894062 1.76453438,4.6598625 C2.79601875,5.74450312 5.57406563,6.12925312 7.83109688,6.12925312 C10.0889719,6.12925312 12.859425,5.74408125 13.8622219,4.66197187 C14.1453,4.34894062 14.2554094,4.0186125 14.1917063,3.67900312 C14.0668313,3.01497187 13.291425,2.50112812 12.6632531,2.18683125 C11.421675,1.613925 9.69409688,1.30005 7.79144063,1.30005 L7.79144063,1.30005 Z M1.39075313,7.74587812 C1.39075313,8.363925 1.93834688,8.93514375 2.9318625,9.35364375 C4.20550313,9.89237812 5.93097188,10.1889562 7.79144063,10.1889562 C9.78606563,10.1889562 11.468925,9.89912812 12.6573469,9.35069062 C13.7048625,8.85456562 14.1917063,8.34451875 14.1917063,7.74587812 L14.1917063,5.64789375 L13.8660188,5.84575312 C12.6214875,6.60259687 10.3669875,7.05400312 7.83658125,7.05400312 C5.23445625,7.05400312 2.9487375,6.58234687 1.72065938,5.79175312 L1.39075313,5.57912812 L1.39075313,7.74587812 Z M3.80176875,11.3849719 C3.80176875,12.2776594 4.70584688,12.6948937 5.245425,12.9442219 C6.43089375,13.4272687 8.188425,13.6913625 10.2024563,13.6913625 L11.3465813,13.6913625 L11.3697844,13.5036281 C11.4566906,12.8104875 11.630925,12.1435031 11.9021906,11.4647062 L12.0540656,11.084175 L11.6549719,11.1761437 C10.5100031,11.4406594 9.19206563,11.5798781 7.84290938,11.5798781 C6.49375313,11.5798781 5.18762813,11.4406594 4.06501875,11.1765656 L3.80176875,11.11455 L3.80176875,11.3849719 Z M3.80176875,15.2054719 C3.80176875,16.0180031 4.81426875,16.4782687 5.24669063,16.6744406 C6.77050313,17.3161125 8.84022188,17.4506906 10.3100344,17.4506906 L10.3104563,17.4506906 C10.7112375,17.4506906 11.1225656,17.4405656 11.5309406,17.4211594 L11.8190813,17.4072375 L11.7233156,17.1359719 C11.4672375,16.4103469 11.3267531,15.6632062 11.2807688,14.7852844 L11.2698,14.5730812 L11.057175,14.5823625 C10.7639719,14.5950187 10.4488313,14.6026125 10.1193469,14.6026125 C8.59089375,14.6026125 5.77994063,14.4448312 4.131675,13.3876125 L3.80176875,13.1762531 L3.80176875,15.2054719 Z M3.80176875,18.3897844 C3.80176875,19.0158469 4.37847188,19.6338937 5.3838,20.0865656 C6.61694063,20.655675 8.34494063,20.96955 10.2475969,20.96955 C11.4478313,20.96955 12.6442688,20.8417219 13.70655,20.6004094 L14.1225188,20.5054875 L13.7985188,20.2283156 C13.2045188,19.7195344 12.7138781,19.1133 12.2995969,18.3758625 L12.2308313,18.2543625 L12.0920344,18.2678625 C11.4849563,18.3260812 10.814175,18.3568781 10.1535188,18.3568781 C7.56405,18.3568781 5.36945625,17.90505 4.13125313,17.1174094 L3.80176875,16.9077375 L3.80176875,18.3897844 Z M19.1630813,7.98676875 C15.5838938,7.98676875 12.6716906,10.89855 12.6716906,14.4777375 C12.6716906,18.0573469 15.5838938,20.96955 19.1630813,20.96955 C22.7426906,20.96955 25.6548938,18.0573469 25.6548938,14.4777375 C25.6072219,10.8972844 22.6954406,7.98676875 19.1630813,7.98676875 L19.1630813,7.98676875 Z M19.1630813,22.3604719 C17.8687688,22.3604719 16.6634719,22.06305 15.5809406,21.4766437 L15.4910813,21.4277062 L15.3965813,21.4669406 C14.0432063,22.0293 12.2337844,22.3385344 10.3028625,22.3389562 C8.23694063,22.3389562 6.2427375,21.9723469 4.8319875,21.3332062 C3.72920625,20.8143 2.41084688,19.8806906 2.41084688,18.3897844 L2.41084688,10.65555 L2.28512813,10.5985969 C0.768909375,9.90925312 -0.00016875,8.964675 -0.00016875,7.79144062 L-0.00016875,3.92495625 C-0.00016875,2.70658125 0.81489375,1.71601875 2.42181563,0.9811125 C3.82328438,0.348721875 5.7466125,-0.000168750001 7.83658125,-0.000168750001 C9.9923625,-0.000168750001 11.9156906,0.332690625 13.2526125,0.93639375 C14.3558156,1.4553 15.674175,2.38890937 15.674175,3.87939375 L15.674175,7.44170625 L15.9766594,7.304175 C16.9305188,6.8704875 18.0324563,6.64140937 19.1630813,6.64140937 C21.2475656,6.64140937 23.2126594,7.45900312 24.6976594,8.94358125 C26.1822375,10.4281594 26.9998313,12.393675 26.9998313,14.4777375 C26.9998313,16.5622219 26.1822375,18.5277375 24.6976594,20.0123156 C23.2282688,21.5272687 21.2640188,22.3604719 19.1630813,22.3604719 L19.1630813,22.3604719 Z" id="Fill-1"></path>
                        </g>
                    </g>
                </g>
            </g>
        </g>
    </g>
</svg>