<?xml version="1.0" encoding="UTF-8" standalone="no"?>
<svg width="42px" height="42px" viewBox="0 0 42 42" version="1.1" xmlns="http://www.w3.org/2000/svg" xmlns:xlink="http://www.w3.org/1999/xlink">
    <!-- Generator: Sketch 46.2 (44496) - http://www.bohemiancoding.com/sketch -->
    <title>Group 15</title>
    <desc>Created with Sketch.</desc>
    <defs></defs>
    <g id="ejecutivo" stroke="none" stroke-width="1" fill="none" fill-rule="evenodd">
        <g id="004-mas-horas-de-un-examen-asignado-2" transform="translate(-1009.000000, -191.000000)">
            <g id="Group-14" transform="translate(856.000000, 174.000000)">
                <g id="Group-22">
                    <g id="Group-10">
                        <g id="Group-15" transform="translate(154.000000, 18.000000)">
                            <circle id="Oval-4" stroke="#0079C8" fill="#FFFFFF" cx="20" cy="20" r="20"></circle>
                            <g id="Page-1" transform="translate(14.000000, 9.000000)" fill="#0079C8">
                                <g id="Group-3">
                                    <path d="M6.197175,20.2880502 L5.672175,20.2880502 C4.385175,20.2880502 3.384675,19.2362633 3.384675,17.992627 L3.384675,7.1858558 L8.531925,7.1858558 L8.531925,17.992627 C8.485425,19.2829091 7.484925,20.2880502 6.197175,20.2880502 M11.058675,0.539586207 L9.247425,0.539586207 C8.818425,0.539586207 8.485425,0.874382445 8.485425,1.25732915 L8.485425,1.30547962 L8.485425,1.54322257 L8.485425,5.60817555 L3.337425,5.60817555 L3.337425,1.54322257 L3.337425,1.30547962 L3.337425,1.25732915 C3.337425,0.826984326 3.003675,0.492188088 2.574675,0.492188088 L0.762675,0.492188088 C0.333675,0.492188088 -7.5e-05,0.826984326 -7.5e-05,1.25732915 C-7.5e-05,1.68767398 0.333675,2.02247022 0.762675,2.02247022 L1.764675,2.02247022 L1.764675,17.9444765 C1.764675,20.096953 3.480675,21.8183323 5.624925,21.8183323 L6.197175,21.8183323 C8.342175,21.8183323 10.058175,20.096953 10.058175,17.9444765 L10.058175,2.06986834 L11.058675,2.06986834 C11.488425,2.06986834 11.821425,1.73582445 11.821425,1.30547962 C11.821425,0.874382445 11.488425,0.539586207 11.058675,0.539586207" id="Fill-1"></path>
                                </g>
                                <path d="M6.54545455,9.81818182 C7.14770174,9.81818182 7.63636364,10.3053919 7.63636364,10.9094996 C7.63636364,11.5119725 7.14770174,12 6.54545455,12 C5.94320735,12 5.45454545,11.5119725 5.45454545,10.9094996 C5.45454545,10.3053919 5.94320735,9.81818182 6.54545455,9.81818182" id="Fill-4"></path>
                                <path d="M5.45413672,12 C6.05660956,12 6.54545455,12.488845 6.54545455,13.0913178 C6.54545455,13.6929732 6.05660956,14.1818182 5.45413672,14.1818182 C4.85166389,14.1818182 4.36363636,13.6929732 4.36363636,13.0913178 C4.36363636,12.488845 4.85166389,12 5.45413672,12" id="Fill-6"></path>
                            </g>
                        </g>
                    </g>
                </g>
            </g>
        </g>
    </g>
</svg>