<?xml version="1.0" encoding="UTF-8" standalone="no"?>
<svg width="20px" height="20px" viewBox="0 0 20 20" version="1.1" xmlns="http://www.w3.org/2000/svg" xmlns:xlink="http://www.w3.org/1999/xlink">
    <!-- Generator: Sketch 46.2 (44496) - http://www.bohemiancoding.com/sketch -->
    <title>Page 1</title>
    <desc>Created with Sketch.</desc>
    <defs>
        <polygon id="path-1" points="0 19.5493103 0 0.000344827586 19.4131034 0.000344827586 19.4131034 19.5493103"></polygon>
    </defs>
    <g id="ejecutivo" stroke="none" stroke-width="1" fill="none" fill-rule="evenodd">
        <g id="004-mas-horas-de-un-examen-asignado-2" transform="translate(-266.000000, -106.000000)">
            <g id="Page-1" transform="translate(266.000000, 106.000000)">
                <mask id="mask-2" fill="white">
                    <use xlink:href="#path-1"></use>
                </mask>
                <g id="Clip-2"></g>
                <path d="M16.267931,18.2297241 C15.1858621,18.2297241 14.2727586,17.3511034 14.2727586,16.2345517 C14.2727586,15.118 15.152069,14.2393793 16.267931,14.2393793 C17.3837931,14.2393793 18.2637931,15.118 18.2637931,16.2345517 C18.23,17.3511034 17.3493103,18.2297241 16.267931,18.2297241 M9.80793103,10.3835172 C9.60517241,10.2476552 9.40172414,10.1469655 9.19827586,10.0455862 C7.44034483,9.06489655 5.81689655,8.11731034 4.43,6.73110345 C3.82172414,6.12213793 3.48310345,5.31110345 3.48310345,4.43110345 C3.48310345,3.5517931 3.82172414,2.74006897 4.43,2.13110345 C5.03965517,1.52213793 5.85068966,1.1842069 6.73068966,1.1842069 C7.60862069,1.1842069 8.42172414,1.52213793 9.02931034,2.13110345 C9.13137931,2.23317241 9.23275862,2.33386207 9.33344828,2.50351724 C9.43551724,2.63868966 9.60517241,2.74006897 9.80793103,2.74006897 C9.97758621,2.74006897 10.1465517,2.63868966 10.2824138,2.50351724 C10.3831034,2.36765517 10.4844828,2.23317241 10.5851724,2.13110345 C11.1955172,1.52213793 12.0058621,1.1842069 12.8865517,1.1842069 C13.7637931,1.1842069 14.5768966,1.52213793 15.1858621,2.13110345 C15.7941379,2.74006897 16.1327586,3.5517931 16.1327586,4.43110345 C16.1327586,5.31110345 15.7941379,6.12213793 15.1858621,6.73110345 C13.73,8.18558621 11.8713793,9.23455172 10.1127586,10.2138621 C9.97758621,10.2814483 9.90862069,10.3152414 9.80793103,10.3835172 M16.267931,13.1228276 C15.6244828,13.1228276 14.9831034,13.3255862 14.5086207,13.6642069 C13.3596552,12.5821379 12.1748276,11.7697241 10.9575862,11.060069 C12.7162069,10.0793793 14.5086207,9.03110345 15.9968966,7.54282759 C16.8424138,6.69731034 17.2824138,5.61455172 17.2824138,4.43110345 C17.2824138,3.24696552 16.8086207,2.13110345 15.9968966,1.31937931 C15.152069,0.474551724 14.0355172,6.89655172e-05 12.8513793,6.89655172e-05 C11.7024138,6.89655172e-05 10.6196552,0.440068966 9.77344828,1.2517931 C8.96172414,0.474551724 7.88034483,6.89655172e-05 6.73068966,6.89655172e-05 C5.54655172,6.89655172e-05 4.43,0.474551724 3.61896552,1.28558621 C2.77344828,2.13110345 2.33344828,3.21386207 2.33344828,4.39731034 C2.33344828,5.58075862 2.80655172,6.69731034 3.61896552,7.50834483 C5.10655172,8.99662069 6.83206897,9.97731034 8.6237931,10.9917931 L8.65896552,10.9917931 C7.57551724,11.6352414 6.49275862,12.3448966 5.58172414,13.1911034 C5.03965517,12.8186897 4.3962069,12.5821379 3.72034483,12.5821379 C2.84034483,12.5821379 2.02931034,12.9193793 1.42034483,13.5290345 L0.16862069,14.780069 C0.0665517241,14.8814483 -0.000344827586,15.0504138 -0.000344827586,15.1862759 C-0.000344827586,15.355931 0.0665517241,15.4904138 0.16862069,15.5917931 L0.913448276,16.3352414 C1.15,16.5724828 1.48724138,16.5724828 1.72448276,16.3352414 C1.96172414,16.100069 1.96172414,15.7607586 1.72448276,15.5242069 L1.38655172,15.1862759 L2.23275862,14.340069 C2.63827586,13.9345517 3.14517241,13.7317931 3.72034483,13.7317931 C4.29482759,13.7317931 4.80172414,13.9345517 5.20793103,14.340069 C6.01965517,15.1517931 6.01965517,16.5048966 5.20793103,17.3166207 L4.36172414,18.1621379 L4.02448276,17.8248966 C3.78793103,17.5876552 3.44931034,17.5876552 3.21275862,17.8248966 C2.97551724,18.0607586 2.97551724,18.3993793 3.21275862,18.635931 L3.95758621,19.380069 C4.05896552,19.4807586 4.19344828,19.5497241 4.36172414,19.5497241 C4.53137931,19.5497241 4.66655172,19.4807586 4.76793103,19.380069 L6.01965517,18.1290345 C7.13689655,17.0131724 7.27137931,15.2538621 6.39137931,13.9690345 C7.37344828,13.0897241 8.55689655,12.3448966 9.84172414,11.6352414 C11.1603448,12.4131724 12.4803448,13.2586897 13.73,14.4083448 C13.3934483,14.9152414 13.19,15.5242069 13.19,16.1669655 C13.19,17.8917931 14.5768966,19.2786897 16.3017241,19.2786897 C18.0265517,19.2786897 19.4134483,17.8917931 19.4134483,16.1669655 C19.4134483,14.4421379 17.9927586,13.1228276 16.267931,13.1228276 M16.267931,15.4566207 C15.827931,15.4566207 15.4886207,15.7945517 15.4886207,16.2345517 C15.4886207,16.6745517 15.827931,17.0131724 16.267931,17.0131724 C16.7072414,17.0131724 17.0451724,16.6745517 17.0451724,16.2345517 C17.0451724,15.8283448 16.6734483,15.4566207 16.267931,15.4566207" id="Fill-1" fill="#6C6E71" mask="url(#mask-2)"></path>
            </g>
        </g>
    </g>
</svg>