<?xml version="1.0" encoding="UTF-8" standalone="no"?>
<svg width="23px" height="24px" viewBox="0 0 23 24" version="1.1" xmlns="http://www.w3.org/2000/svg" xmlns:xlink="http://www.w3.org/1999/xlink">
    <!-- Generator: Sketch 46.2 (44496) - http://www.bohemiancoding.com/sketch -->
    <title>Fill 1</title>
    <desc>Created with Sketch.</desc>
    <defs></defs>
    <g id="Symbols" stroke="none" stroke-width="1" fill="none" fill-rule="evenodd">
        <g id="despliegue-horas" transform="translate(-307.000000, -40.000000)" fill="#1779C8">
            <path d="M318.744573,53.5399442 C318.288697,53.5399442 317.873734,53.1215513 317.873734,52.6619085 C317.873734,52.2022656 318.288697,51.7838728 318.744573,51.7838728 C319.200448,51.7838728 319.615776,52.2022656 319.615776,52.6619085 C319.615776,53.1215513 319.200448,53.5399442 318.744573,53.5399442 L318.744573,53.5399442 Z M322.040901,53.5399442 C321.585026,53.5399442 321.170063,53.1215513 321.170063,52.6619085 C321.170063,52.2022656 321.585026,51.7838728 322.040901,51.7838728 C322.496777,51.7838728 322.912105,52.2022656 322.912105,52.6619085 C322.912105,53.1215513 322.496777,53.5399442 322.040901,53.5399442 L322.040901,53.5399442 Z M325.397502,53.5399442 C324.941627,53.5399442 324.526664,53.1215513 324.526664,52.6619085 C324.526664,52.2302567 324.852498,51.7838728 325.397502,51.7838728 C325.853378,51.7838728 326.268341,52.2022656 326.268341,52.6619085 C326.268341,53.1215513 325.853378,53.5399442 325.397502,53.5399442 L325.397502,53.5399442 Z M312.092008,56.9850558 C311.636133,56.9850558 311.220804,56.5662946 311.220804,56.1066518 C311.220804,55.5571429 311.663529,55.2289844 312.092008,55.2289844 C312.547883,55.2289844 312.962847,55.6470089 312.962847,56.1066518 C312.962847,56.5662946 312.547883,56.9850558 312.092008,56.9850558 L312.092008,56.9850558 Z M315.448244,56.9850558 C314.992368,56.9850558 314.577405,56.5662946 314.577405,56.1066518 C314.577405,55.5814509 314.927348,55.2289844 315.448244,55.2289844 C315.904119,55.2289844 316.319082,55.6470089 316.319082,56.1066518 C316.319082,56.5662946 315.904119,56.9850558 315.448244,56.9850558 L315.448244,56.9850558 Z M318.744573,56.9850558 C318.288697,56.9850558 317.873734,56.5662946 317.873734,56.1066518 C317.873734,55.6470089 318.288697,55.2289844 318.744573,55.2289844 C319.172686,55.2289844 319.615776,55.5571429 319.615776,56.1066518 C319.615776,56.5662946 319.200448,56.9850558 318.744573,56.9850558 L318.744573,56.9850558 Z M322.040901,56.9850558 C321.585026,56.9850558 321.170063,56.5662946 321.170063,56.1066518 C321.170063,55.5571429 321.613153,55.2289844 322.040901,55.2289844 C322.496777,55.2289844 322.912105,55.6470089 322.912105,56.1066518 C322.912105,56.5662946 322.496777,56.9850558 322.040901,56.9850558 L322.040901,56.9850558 Z M325.397502,56.9850558 C324.941627,56.9850558 324.526664,56.5662946 324.526664,56.1066518 C324.526664,55.5814509 324.876606,55.2289844 325.397502,55.2289844 C325.853378,55.2289844 326.268341,55.6470089 326.268341,56.1066518 C326.268341,56.5662946 325.853378,56.9850558 325.397502,56.9850558 L325.397502,56.9850558 Z M312.092008,60.369029 C311.636133,60.369029 311.220804,59.9502679 311.220804,59.490625 C311.220804,59.0309821 311.636133,58.6129576 312.092008,58.6129576 C312.547883,58.6129576 312.962847,59.0309821 312.962847,59.490625 C312.962847,59.9502679 312.547883,60.369029 312.092008,60.369029 L312.092008,60.369029 Z M315.448244,60.369029 C314.992368,60.369029 314.577405,59.9502679 314.577405,59.490625 C314.577405,59.0589732 314.903239,58.6129576 315.448244,58.6129576 C315.904119,58.6129576 316.319082,59.0309821 316.319082,59.490625 C316.319082,59.9502679 315.904119,60.369029 315.448244,60.369029 L315.448244,60.369029 Z M318.744573,60.369029 C318.288697,60.369029 317.873734,59.9502679 317.873734,59.490625 C317.873734,59.0309821 318.288697,58.6129576 318.744573,58.6129576 C319.200448,58.6129576 319.615776,59.0309821 319.615776,59.490625 C319.615776,59.9502679 319.200448,60.369029 318.744573,60.369029 L318.744573,60.369029 Z M322.040901,60.369029 C321.585026,60.369029 321.170063,59.9502679 321.170063,59.490625 C321.170063,59.0309821 321.585026,58.6129576 322.040901,58.6129576 C322.586271,58.6129576 322.912105,59.0589732 322.912105,59.490625 C322.912105,59.9502679 322.496777,60.369029 322.040901,60.369029 L322.040901,60.369029 Z M314.728998,40.9704799 C314.165729,40.9704799 313.801906,41.3376786 313.801906,41.9052344 L313.801906,45.0479688 C313.801906,45.6155246 314.165729,45.9827232 314.728998,45.9827232 C315.292267,45.9827232 315.656091,45.6155246 315.656091,45.0479688 L315.656091,41.9052344 C315.656091,41.3726674 315.257565,40.9704799 314.728998,40.9704799 L314.728998,40.9704799 Z M322.640334,40.9704799 C322.07743,40.9704799 321.713241,41.3376786 321.713241,41.9052344 L321.713241,45.0479688 C321.713241,45.580904 322.111767,45.9827232 322.640334,45.9827232 C323.1689,45.9827232 323.567791,45.580904 323.567791,45.0479688 L323.567791,41.9052344 C323.567791,41.3376786 323.203603,40.9704799 322.640334,40.9704799 L322.640334,40.9704799 Z M309.067086,48.641875 L328.242339,48.641875 L328.242339,44.1732478 L324.530316,44.1732478 L324.530316,45.0479688 C324.530316,46.1517746 323.710252,46.9532031 322.580427,46.9532031 C321.450601,46.9532031 320.630903,46.1517746 320.630903,45.0479688 L320.630903,44.1732478 L316.618981,44.1732478 L316.618981,45.0479688 C316.618981,46.1517746 315.798917,46.9532031 314.669091,46.9532031 C313.539266,46.9532031 312.719202,46.1517746 312.719202,45.0479688 L312.719202,44.322779 L312.631168,44.4115402 L312.631168,44.1732478 L309.067086,44.1732478 L309.067086,48.641875 Z M309.067086,62.1785045 L328.242705,62.1785045 L328.242705,50.0952009 L309.067086,50.0952009 L309.067086,62.1785045 Z M308.375967,63.5714286 C307.975615,63.5714286 307.684848,63.2786272 307.684848,62.8749665 L307.684848,43.4767857 C307.684848,43.0727567 307.975615,42.7799554 308.375967,42.7799554 L312.779109,42.7799554 L312.779109,41.9052344 C312.779109,40.8014286 313.599173,40 314.728998,40 C315.858824,40 316.678888,40.8014286 316.678888,41.9052344 L316.678888,42.7799554 L320.690809,42.7799554 L320.690809,41.9052344 C320.690809,40.8014286 321.510508,40 322.640334,40 C323.770159,40 324.590223,40.8014286 324.590223,41.9052344 L324.590223,42.7799554 L328.99373,42.7799554 C329.394082,42.7799554 329.684848,43.0727567 329.684848,43.4767857 L329.684848,62.8749665 C329.684848,63.2786272 329.394082,63.5714286 328.99373,63.5714286 L308.375967,63.5714286 Z" id="Fill-1"></path>
        </g>
    </g>
</svg>