<?xml version="1.0" encoding="UTF-8" standalone="no"?>
<svg width="20px" height="13px" viewBox="0 0 20 13" version="1.1" xmlns="http://www.w3.org/2000/svg" xmlns:xlink="http://www.w3.org/1999/xlink">
    <!-- Generator: Sketch 46.2 (44496) - http://www.bohemiancoding.com/sketch -->
    <title>Mask</title>
    <desc>Created with Sketch.</desc>
    <defs>
        <path d="M5.29666724,5.83069833 L11.6321932,12.1449747 C11.8334401,12.3462215 12.16156,12.3462215 12.3628068,12.1449747 L18.7027078,5.83069833 C19.1458258,5.38945522 19.8626896,5.38945522 20.3064327,5.8325733 L21.6676614,7.19380203 C22.1107795,7.63692011 22.1107795,8.35565888 21.6676614,8.79940194 L12.8028,17.6642634 C12.3596819,18.1073815 11.6409431,18.1073815 11.1972,17.6642634 L2.33233856,8.79940194 C1.88922048,8.35628387 1.88922048,7.6375451 2.33233856,7.19380203 L3.69356729,5.8325733 C4.13668536,5.38945522 4.85354916,5.38945522 5.29729223,5.83069833 L5.29666724,5.83069833 Z" id="path-1"></path>
    </defs>
    <g id="Symbols" stroke="none" stroke-width="1" fill="none" fill-rule="evenodd">
        <g id="ico-/-arrow-up" transform="translate(-2.000000, -5.000000)">
            <mask id="mask-2" fill="white">
                <use xlink:href="#path-1"></use>
            </mask>
            <use id="Mask" fill="#0079C8" fill-rule="nonzero" transform="translate(12.000000, 11.748301) rotate(-180.000000) translate(-12.000000, -11.748301) " xlink:href="#path-1"></use>
        </g>
    </g>
</svg>