<?xml version="1.0" encoding="UTF-8" standalone="no"?>
<svg width="15px" height="15px" viewBox="0 0 15 15" version="1.1" xmlns="http://www.w3.org/2000/svg" xmlns:xlink="http://www.w3.org/1999/xlink">
    <!-- Generator: Sketch 46.2 (44496) - http://www.bohemiancoding.com/sketch -->
    <title>Page 1</title>
    <desc>Created with Sketch.</desc>
    <defs>
        <polygon id="path-1" points="14.398625 0.0001875 8.6165705e-05 0.0001875 8.6165705e-05 14.3914375 14.398625 14.3914375 14.398625 0.0001875"></polygon>
    </defs>
    <g id="ejecutivo" stroke="none" stroke-width="1" fill="none" fill-rule="evenodd">
        <g id="004-datos-del-paciente" transform="translate(-1008.000000, -67.000000)">
            <g id="Group-10" transform="translate(1008.000000, 66.000000)">
                <g id="Page-1" transform="translate(0.000000, 1.000000)">
                    <mask id="mask-2" fill="white">
                        <use xlink:href="#path-1"></use>
                    </mask>
                    <g id="Clip-2"></g>
                    <path d="M2.181125,10.7670625 C2.19425,10.7345625 2.213,10.6976875 2.233,10.6595625 L3.663625,12.0889375 L1.183,13.1914375 L2.181125,10.7670625 Z M11.828,0.9201875 L13.478625,2.5708125 L12.748625,3.3008125 L11.098,1.6501875 L11.828,0.9201875 Z M4.462375,11.5870625 L4.462375,11.5870625 L2.81175,9.9358125 L10.44675,2.3008125 L12.097375,3.9520625 L4.462375,11.5870625 Z M0.58675,14.3914375 C0.6955,14.3914375 0.809875,14.3651875 0.927375,14.3126875 L4.228625,12.8451875 C4.513,12.7189375 4.893625,12.4576875 5.113625,12.2376875 L14.12925,3.2220625 C14.303,3.0483125 14.398625,2.8170625 14.398625,2.5708125 C14.398625,2.3239375 14.303,2.0933125 14.12925,1.9201875 L12.478625,0.2689375 C12.304875,0.0958125 12.07425,-0.0004375 11.828,-0.0004375 C11.58175,-0.0004375 11.3505,0.0958125 11.17675,0.2689375 L1.931125,9.5151875 C1.708,9.7376875 1.449875,10.1258125 1.329875,10.4164375 L0.06925,13.4783125 C-0.067625,13.8101875 0.02925,14.0351875 0.098625,14.1395625 C0.206125,14.2995625 0.38425,14.3914375 0.58675,14.3914375 L0.58675,14.3914375 Z" id="Fill-1" fill="#0079C8" mask="url(#mask-2)"></path>
                </g>
            </g>
        </g>
    </g>
</svg>