<?xml version="1.0" encoding="UTF-8" standalone="no"?>
<svg width="31px" height="31px" viewBox="0 0 31 31" version="1.1" xmlns="http://www.w3.org/2000/svg" xmlns:xlink="http://www.w3.org/1999/xlink">
    <!-- Generator: Sketch 46.2 (44496) - http://www.bohemiancoding.com/sketch -->
    <title>Group</title>
    <desc>Created with Sketch.</desc>
    <defs></defs>
    <g id="Symbols" stroke="none" stroke-width="1" fill="none" fill-rule="evenodd">
        <g id="Select_Circle" transform="translate(1.000000, 1.000000)">
            <g id="Group">
                <path d="M14.5,0 C6.5050625,0 0,6.5050625 0,14.5 C0,22.4949375 6.5050625,29 14.5,29 C22.4949375,29 29,22.4949375 29,14.5 C29,6.5050625 22.4949375,0 14.5,0 Z" id="Path" stroke="#40A2A4" fill="#40A2A4"></path>
                <path d="M20.00275,7.84178125 L21.246125,8.82415625 C21.2633438,8.841375 21.2832813,8.86403125 21.2941563,8.892125 C21.311375,8.92021875 21.32225,8.94559375 21.32225,8.96825 C21.3276875,9.00540625 21.3276875,9.0389375 21.32225,9.07065625 C21.3140938,9.10146875 21.2995938,9.13046875 21.282375,9.15584375 L13.137,20.2773438 C13.1197813,20.3054375 13.0916875,20.3226563 13.0663125,20.339875 L12.9729688,20.3706875 L12.95575,20.3706875 C12.9249375,20.3706875 12.8932188,20.3625313 12.865125,20.3534688 C12.8370313,20.33625 12.8170938,20.3226563 12.8025938,20.3054375 L8.370125,15.7116563 C8.35290625,15.6835625 8.3393125,15.663625 8.3248125,15.6291875 C8.3103125,15.6065313 8.30759375,15.5811563 8.30759375,15.5530625 C8.30759375,15.5159063 8.31303125,15.4850938 8.3248125,15.4597188 C8.3393125,15.431625 8.35290625,15.4116875 8.370125,15.39175 L9.46940625,14.239 C9.51471875,14.1936875 9.5681875,14.1710313 9.63071875,14.1710313 C9.69325,14.1710313 9.74671875,14.1936875 9.79203125,14.239 L12.7772188,17.331125 L19.6819375,7.89525 C19.71275,7.84178125 19.7644063,7.8100625 19.8260313,7.80190625 C19.8885625,7.79646875 19.9474688,7.804625 20.0018438,7.84178125 L20.00275,7.84178125 Z" id="Path" fill="#FFFFFF"></path>
            </g>
        </g>
    </g>
</svg>