<?xml version="1.0" encoding="UTF-8"?>
<svg width="40px" height="40px" viewBox="0 0 40 40" version="1.1" xmlns="http://www.w3.org/2000/svg" xmlns:xlink="http://www.w3.org/1999/xlink">
    <!-- Generator: Sketch 49.1 (51147) - http://www.bohemiancoding.com/sketch -->
    <title>Group 4 Copy 2</title>
    <desc>Created with Sketch.</desc>
    <defs></defs>
    <g id="ejecutivo" stroke="none" stroke-width="1" fill="none" fill-rule="evenodd">
        <g id="004-editar-datos-del-paciente" transform="translate(-99.000000, -502.000000)">
            <g id="Group-10" transform="translate(84.000000, 434.000000)">
                <g id="Group-4-Copy-2" transform="translate(15.000000, 68.000000)">
                    <g id="Group-Copy-2" fill="#FB7C40">
                        <circle id="Oval" cx="20" cy="20" r="20"></circle>
                    </g>
                    <g id="man" transform="translate(10.000000, 7.000000)" fill="#FFFFFF" fill-rule="nonzero">
                        <path d="M10.0895651,25.0578671 C9.09137336,25.0963026 8.10366595,24.842561 7.24759861,24.3277671 C6.7870098,24.0207079 6.32975859,23.6360495 5.90338017,23.2906079 C5.60047207,23.0136346 5.27964587,22.7569179 4.94298574,22.5221255 C3.89169783,21.8635659 3.1036437,20.8582804 2.71513768,19.680159 C2.45714798,18.926101 2.32740829,18.1341248 2.33131367,17.3371637 C1.63959605,16.7998101 1.17900723,15.7242685 0.912833627,14.1497556 C0.667785379,13.1743501 0.849865502,12.1407419 1.41347364,11.3077891 C1.29832644,7.12160421 1.60538565,4.47154973 3.83323371,2.55076087 C5.75622445,1.2608564 8.00521831,0.541953683 10.3198595,0.477276814 L10.5885363,0.477276814 C12.969914,0.477276814 15.9654101,1.59120085 17.0409517,2.55159527 C19.2687998,4.47071533 19.575859,7.12160421 19.4223294,11.3470059 C20.0002231,12.1595793 20.1839098,13.1882248 19.9229694,14.15059 C19.7694398,15.1877492 19.4623806,16.6087325 18.5044893,17.3379981 L18.5044893,17.6450573 C18.4932579,18.319117 18.4030841,18.9895391 18.2358125,19.642611 C17.8350484,20.8040772 17.0488762,21.7934175 16.0079645,22.4461951 C15.6241405,22.7148719 15.2778644,23.0219311 14.9324228,23.2914423 C14.5493261,23.6442231 14.1382926,23.965404 13.7033516,24.2518367 C12.8516645,24.8163195 11.8439925,25.0985961 10.8230027,25.0587015 L10.0929027,25.0587015 L10.0895651,25.0578671 Z M3.5603849,11.8843595 C3.16330635,11.8383774 2.763896,11.948477 2.44646087,12.1914188 C2.21616646,12.4600956 2.17778406,12.9599012 2.29293127,13.8810788 C2.52322567,15.4172093 2.98464889,16.2624565 3.63714971,16.3776037 L3.71391451,16.3776037 L3.71391451,16.4543685 C3.71391451,16.7230453 3.75229691,16.9917221 3.75229691,17.2612333 C3.82906171,18.9508934 3.86744411,20.0648174 5.71063377,21.332271 C6.13540455,21.6162153 6.53389251,21.9376306 6.9013226,22.2926655 C7.70897174,23.1683029 8.86004706,23.6456301 10.0503483,23.5985015 L10.7420659,23.5985015 C11.974236,23.6482969 13.1667352,23.1576443 14.0070732,22.2551175 C14.3525148,21.9864406 14.7371732,21.640999 15.197762,21.3372774 C17.0409517,20.0698238 17.0793341,18.9558998 17.1560989,17.2662397 C17.1560989,16.9975629 17.1944813,16.7655997 17.1944813,16.4593749 L17.1944813,16.3826101 L17.2695773,16.3826101 C17.9220781,16.3058453 18.3451189,15.5373629 18.6137957,13.8860852 C18.7673253,13.0024556 18.7289429,12.5034844 18.4602661,12.1964252 C18.1585937,11.9217237 17.7505107,11.7951721 17.3463421,11.8509835 L17.0776653,11.8509835 L17.1160477,11.7742187 C17.7693829,8.70195785 17.8461477,7.04984581 16.4627125,5.93341857 C16.0625507,5.60196827 15.5635628,5.41293992 15.0442324,5.39606496 C14.3488559,5.45475218 13.6775038,5.67844088 13.0858956,6.04856578 C12.339887,6.49789957 11.4968555,6.76145422 10.6277531,6.8170482 L10.3590763,6.8170482 C9.47789252,6.76162412 8.62236596,6.4982752 7.86255143,6.04856578 C7.25698539,5.67763727 6.57275909,5.45413478 5.86499777,5.39606496 C5.33812434,5.41021656 4.83421252,5.61474548 4.44651773,5.97180097 C3.02803769,7.16248981 3.10229929,8.85214986 3.79401691,11.8126011 L3.83239931,11.9277483 C3.82906171,11.8843595 3.59876731,11.8843595 3.5603849,11.8843595 Z M10.4733891,5.50870896 L10.5885363,5.50870896 C11.1160525,5.46279887 11.6278934,5.30583432 12.0904564,5.04812015 L12.5126628,4.85620814 C13.2012975,4.46432971 13.9567221,4.20375065 14.7405108,4.08772572 L15.04757,4.08772572 C15.827921,4.10944254 16.581189,4.37855032 17.1986533,4.85620814 L17.1602709,4.70267854 C16.8867108,4.28203979 16.5643381,3.89524855 16.1998765,3.5503721 C15.1864367,2.84330457 14.0342457,2.35978825 12.819722,2.13189206 C12.0638805,1.94385212 11.2896038,1.83975709 10.5109371,1.82149525 L10.4341723,1.82149525 C9.65542253,1.81611277 8.87973341,1.91946309 8.12955944,2.12855446 C6.90946208,2.35709606 5.75595828,2.85573129 4.75357694,3.5879201 C4.34930857,3.88921893 4.00895518,4.26786207 3.75229691,4.70184414 L3.67553211,4.85537374 C4.28708488,4.3670131 5.04405611,4.09658234 5.82661537,4.08689132 L6.13367458,4.08689132 C6.91895809,4.1967429 7.67551704,4.45771324 8.36152264,4.85537374 L8.66858185,5.00890335 C9.16395126,5.28983901 9.71409667,5.46060323 10.2814771,5.50954336 L10.4733891,5.50954336 L10.4733891,5.50870896 Z M10.3966243,19.642611 C9.69127601,19.6739146 8.99351859,19.4862137 8.39907065,19.1052574 C8.28690335,19.0339579 8.20769118,18.9209824 8.17889207,18.7912298 C8.15009295,18.6614773 8.17407081,18.5255983 8.24554104,18.4135397 C8.32842868,18.2601132 8.49387645,18.169869 8.66774745,18.1832453 C8.77381957,18.1905699 8.87776674,18.2165567 8.97480666,18.2600101 C9.41125093,18.5325949 9.92009475,18.6664246 10.4341723,18.6438341 C10.9467623,18.6533146 11.4519388,18.5204494 11.8935379,18.2600101 C11.9771448,18.2169203 12.0684633,18.1908293 12.1622148,18.1832453 C12.3815661,18.1867364 12.5730933,18.3326294 12.6347252,18.5431732 C12.6963571,18.753717 12.6137352,18.9798609 12.4308916,19.1010854 C11.8263205,19.4903454 11.1147108,19.6797772 10.3966243,19.642611 Z M13.2385908,13.9202956 C12.7316817,13.9202956 12.3207508,13.5093646 12.3207508,13.0024556 C12.3207508,12.4955465 12.7316817,12.0846156 13.2385908,12.0846156 C13.7454998,12.0846156 14.1564308,12.4955465 14.1564308,13.0024556 C14.1470794,13.5053029 13.7414464,13.9105672 13.2385908,13.9194612 L13.2385908,13.9202956 Z M7.66980502,13.9202956 C7.16289597,13.9202956 6.751965,13.5093646 6.751965,13.0024556 C6.751965,12.4955465 7.16289597,12.0846156 7.66980502,12.0846156 C8.17671407,12.0846156 8.58764505,12.4955465 8.58764505,13.0024556 C8.57829368,13.5053029 8.17266059,13.9105672 7.66980502,13.9194612 L7.66980502,13.9202956 Z"></path>
                    </g>
                </g>
            </g>
        </g>
    </g>
</svg>