<?xml version="1.0" encoding="UTF-8"?>
<svg width="14px" height="14px" viewBox="0 0 14 14" version="1.1" xmlns="http://www.w3.org/2000/svg" xmlns:xlink="http://www.w3.org/1999/xlink">
    <!-- Generator: Sketch 49.1 (51147) - http://www.bohemiancoding.com/sketch -->
    <title>alert</title>
    <desc>Created with Sketch.</desc>
    <defs></defs>
    <g id="ejecutivo" stroke="none" stroke-width="1" fill="none" fill-rule="evenodd">
        <g id="004-ficha-paciente-2" transform="translate(-1116.000000, -209.000000)" fill="#FA5000" fill-rule="nonzero">
            <g id="alert" transform="translate(1116.000000, 209.000000)">
                <path d="M7,0 C3.140375,0 0,3.140375 0,7 C0,10.859625 3.140375,14 7,14 C10.859625,14 14,10.859625 14,7 C14,3.140375 10.859625,0 7,0 Z M7,13.3 C3.52654317,13.3 0.7,10.4734568 0.7,7 C0.7,3.52654317 3.52654317,0.7 7,0.7 C10.4734568,0.7 13.3,3.52654317 13.3,7 C13.3,10.4734568 10.4734568,13.3 7,13.3 Z M7.7958125,9.9036875 C7.7958125,9.4793125 7.4519375,9.1354375 7.0275625,9.1354375 C6.6031875,9.1354375 6.2593125,9.4793125 6.2593125,9.9036875 C6.2593125,10.3280625 6.6031875,10.6719375 7.0275625,10.6719375 C7.4519375,10.6719375 7.7958125,10.3280625 7.7958125,9.9036875 Z M7.0275625,3.3263125 C6.6023125,3.3263125 6.2593125,3.670625 6.2593125,4.0945625 L6.5148125,8.152375 C6.5148125,8.4354375 6.7445,8.665125 7.0275625,8.665125 C7.310625,8.665125 7.5403125,8.4354375 7.5403125,8.152375 L7.7958125,4.0945625 C7.7958125,3.670625 7.4528125,3.3263125 7.0275625,3.3263125 Z" id="path-1"></path>
            </g>
        </g>
    </g>
</svg>