<?xml version="1.0" encoding="UTF-8" standalone="no"?>
<svg width="30px" height="27px" viewBox="0 0 30 27" version="1.1" xmlns="http://www.w3.org/2000/svg" xmlns:xlink="http://www.w3.org/1999/xlink">
    <!-- Generator: Sketch 46.2 (44496) - http://www.bohemiancoding.com/sketch -->
    <title>Fill 1</title>
    <desc>Created with Sketch.</desc>
    <defs></defs>
    <g id="ejecutivo" stroke="none" stroke-width="1" fill="none" fill-rule="evenodd">
        <g id="002-home" transform="translate(-12.000000, -65.000000)" fill="#FFFFFF">
            <path d="M32.2546875,69.4545313 L33.5765625,70.4984375 L33.5765625,66.670625 L32.2546875,66.670625 L32.2546875,69.4545313 Z M25.3640625,89.7092187 L28.7048438,89.7092187 L28.7048438,82.74875 L25.3640625,82.74875 L25.3640625,89.7092187 Z M30.7232813,80.73125 L30.7232813,89.7096875 L35.94375,89.7096875 L35.94375,75.0926563 L26.9648438,67.5748437 L18.0548438,75.0228125 L18.0548438,89.7092187 L23.484375,89.7092187 L23.484375,80.7303125 L30.7228125,80.7303125 L30.7232813,80.73125 Z M26.9648438,73.004375 C27.939375,73.004375 28.7048438,73.7698437 28.7048438,74.744375 C28.7048438,75.719375 27.939375,76.4848437 26.9648438,76.4848437 C25.9898438,76.4848437 25.224375,75.719375 25.224375,74.744375 C25.224375,73.7698437 26.0601563,73.004375 26.9648438,73.004375 L26.9648438,73.004375 Z M35.1089063,65.2090625 L35.1089063,71.751875 L42,77.5296875 L40.7470313,79.060625 L37.963125,76.76375 L37.963125,91.7285938 L16.0373437,91.7285938 L16.0373437,76.6939062 L13.2529688,78.9907812 L12,77.52875 L26.9648438,65 L30.7926563,68.2015625 L30.7926563,65.208125 L35.1079687,65.208125 L35.1089063,65.2090625 Z" id="Fill-1"></path>
        </g>
    </g>
</svg>