<?xml version="1.0" encoding="UTF-8"?>
<svg width="20px" height="20px" viewBox="0 0 20 20" version="1.1" xmlns="http://www.w3.org/2000/svg" xmlns:xlink="http://www.w3.org/1999/xlink">
    <!-- Generator: Sketch 49.1 (51147) - http://www.bohemiancoding.com/sketch -->
    <title>Page 1</title>
    <desc>Created with Sketch.</desc>
    <defs>
        <polygon id="path-1" points="0.0001 0.0001 20 0.0001 20 19.9878 0.0001 19.9878"></polygon>
    </defs>
    <g id="Asesor" stroke="none" stroke-width="1" fill="none" fill-rule="evenodd">
        <g id="mensaje-agendado-asesor-copy" transform="translate(-762.000000, -175.000000)">
            <g id="Page-1" transform="translate(762.000000, 175.000000)">
                <mask id="mask-2" fill="white">
                    <use xlink:href="#path-1"></use>
                </mask>
                <g id="Clip-2"></g>
                <path d="M8.6421,18.6308 L8.6431,18.6308 C9.0171,18.6328 9.3191,18.9348 9.3191,19.3098 C9.3191,19.4918 9.2481,19.6638 9.1211,19.7908 C8.9951,19.9178 8.8251,19.9878 8.6421,19.9878 L0.6841,19.9878 C0.3121,19.9878 0.0001,19.6798 0.0001,19.3168 L0.0001,11.3578 C0.0041,11.1718 0.0741,11.0038 0.2031,10.8748 C0.3361,10.7418 0.5021,10.6718 0.6841,10.6718 C1.0561,10.6718 1.3611,10.9758 1.3611,11.3488 L1.3611,17.6638 L7.8341,11.1928 C8.0991,10.9268 8.5291,10.9268 8.7941,11.1928 C9.0601,11.4568 9.0601,11.8888 8.7941,12.1538 L2.3241,18.6248 L8.6421,18.6308 Z M11.3571,1.3548 L11.3561,1.3538 C10.9831,1.3538 10.6791,1.0508 10.6811,0.6778 C10.6811,0.4958 10.7511,0.3238 10.8781,0.1968 C11.0051,0.0708 11.1761,-0.0002 11.3571,-0.0002 L19.3161,-0.0002 C19.6871,-0.0002 20.0001,0.3088 20.0001,0.6718 L20.0001,8.6308 C19.9941,8.8168 19.9241,8.9848 19.7971,9.1108 C19.6641,9.2438 19.4981,9.3148 19.3161,9.3148 C18.9431,9.3148 18.6391,9.0098 18.6391,8.6368 L18.6391,2.3228 L12.1681,8.7938 C11.9041,9.0588 11.4731,9.0588 11.2071,8.7938 C10.9411,8.5298 10.9411,8.0978 11.2071,7.8328 L17.6761,1.3598 L11.3571,1.3548 Z" id="Fill-1" fill="#0079C8" mask="url(#mask-2)"></path>
            </g>
        </g>
    </g>
</svg>