<?xml version="1.0" encoding="UTF-8" standalone="no"?>
<svg width="80px" height="80px" viewBox="0 0 80 80" version="1.1" xmlns="http://www.w3.org/2000/svg" xmlns:xlink="http://www.w3.org/1999/xlink">
    <!-- Generator: Sketch 46.2 (44496) - http://www.bohemiancoding.com/sketch -->
    <title>Group</title>
    <desc>Created with Sketch.</desc>
    <defs></defs>
    <g id="Symbols" stroke="none" stroke-width="1" fill="none" fill-rule="evenodd">
        <g id="ic_Error" transform="translate(4.000000, 4.000000)">
            <g id="Group">
                <path d="M39.7997772,36.0198568 L51.2199841,47.4400636 C51.7393158,47.9604137 51.9989817,48.5795386 51.9989817,49.3208592 C51.9989817,50.0601432 51.7393158,50.699634 51.2199841,51.2199841 C50.699634,51.7403341 50.0601432,52 49.3198409,52 C48.5795386,52 47.9593954,51.7403341 47.4390453,51.2199841 L36.0198568,39.7997772 L24.59965,51.2199841 C24.0792999,51.7403341 23.4398091,52 22.6801591,52 C21.9388385,52 21.2993477,51.7403341 20.7789976,51.2199841 C20.2596659,50.699634 20,50.0601432 20,49.3208592 C20,48.5795386 20.2596659,47.9604137 20.7789976,47.4400636 L32.1992045,35.9801432 L20.7789976,24.59965 C20.2596659,24.0792999 20,23.4398091 20,22.6791408 C20,21.9398568 20.2596659,21.300366 20.7789976,20.7800159 C21.2993477,20.2596659 21.9194909,20 22.6801591,20 C23.4194431,20 24.058934,20.2596659 24.59965,20.7800159 L36.0198568,32.2002228 L47.4390453,20.8197295 C47.9593954,20.2993795 48.5795386,20.0407319 49.3198409,20.0407319 C50.0601432,20.0407319 50.699634,20.2993795 51.2199841,20.8197295 C51.7393158,21.3400796 51.9989817,21.9592045 51.9989817,22.6995068 C51.9989817,23.460175 51.7393158,24.0792999 51.2199841,24.59965 L39.7997772,36.0198568 Z" id="Page-1" fill="#FB7C40"></path>
                <g id="Group-6-Copy-3" stroke-width="4" stroke="#FB7C40">
                    <circle id="Oval" cx="36" cy="36" r="38"></circle>
                </g>
            </g>
        </g>
    </g>
</svg>