<?xml version="1.0" encoding="UTF-8"?>
<svg width="40px" height="40px" viewBox="0 0 40 40" version="1.1" xmlns="http://www.w3.org/2000/svg" xmlns:xlink="http://www.w3.org/1999/xlink">
    <!-- Generator: Sketch 49.1 (51147) - http://www.bohemiancoding.com/sketch -->
    <title>Fill 107</title>
    <desc>Created with Sketch.</desc>
    <defs>
        <circle id="path-1" cx="20" cy="20" r="20"></circle>
    </defs>
    <g id="ejecutivo" stroke="none" stroke-width="1" fill="none" fill-rule="evenodd">
        <g id="002-home-llamame-1" transform="translate(-187.000000, -287.000000)">
            <g id="Fill-107" transform="translate(187.000000, 287.000000)">
                <mask id="mask-2" fill="white">
                    <use xlink:href="#path-1"></use>
                </mask>
                <use id="Mask" fill="#BFDEF1" xlink:href="#path-1"></use>
                <path d="M23.7313825,23.1403203 C25.6525765,21.36665 26.4646824,18.63335 26.4646824,16.1215775 C26.4646824,14.1268635 26.2426713,11.5415709 24.9135069,9.91590803 C24.4704521,11.4670836 23.2148076,12.6501753 21.7366685,13.3152412 C20.7770388,13.758296 20.1114892,12.3546442 21.0716025,11.9106221 C22.253727,11.3935635 23.4358514,10.2119228 23.5093714,8.88179101 C22.8443055,8.51177253 21.9577122,8.28976144 20.9231115,8.21624143 C21.0706352,8.95482734 20.9231115,9.69389694 20.6275804,10.4334502 C20.0360345,11.6881273 18.9283975,12.7232117 17.6717857,13.2397865 C16.712156,13.6828413 16.0466064,12.2801569 17.0067198,11.835651 C17.8193094,11.3195598 18.705419,10.6544939 19.0749538,9.69292957 C19.2974486,9.17587106 19.3709686,8.65881256 19.2224775,8.14127036 C17.0797561,8.28879407 15.750108,9.17587106 14.9375184,10.3579955 C13.977405,11.835651 13.6818739,13.903885 13.6818739,16.0470901 C13.6818739,18.63335 14.4944635,21.29313 16.3416539,23.0658329 C16.5636649,23.287844 16.710705,23.5824077 16.710705,23.8779388 L16.710705,28.4589127 C17.5972983,29.2715024 18.7794227,29.6405535 20.0360345,29.6405535 C21.2181589,29.6405535 22.4002833,29.1974987 23.3608803,28.4589127 L23.3608803,23.8779388 C23.3608803,23.5824077 23.508404,23.361364 23.7304151,23.1393529 L23.7313825,23.1403203 Z M6,36.8822747 C6,29.7900119 8.65977992,29.051426 14.6434383,27.7212942 L14.6434383,24.321961 C12.5752043,22.1052359 11.5406036,19.0764048 11.5406036,16.0480575 C11.5406036,13.5372523 11.9101384,11.0240287 13.0922628,9.17683843 C14.4963983,7.25612811 16.5646323,6 20.0370018,6 C23.5093714,6 25.6516091,7.25612811 26.9082209,9.25035844 C28.1638653,11.0985161 28.4593964,13.536285 28.4593964,16.1215775 C28.4593964,19.1508922 27.4997668,22.1811743 25.3565617,24.3959647 L25.3565617,27.7948142 C31.4151911,29.1239786 34,29.8625646 34,36.9557947 L31.931766,36.9557947 C31.931766,31.4151911 29.6415208,30.8976489 24.9870269,29.8640156 C23.6578625,31.1931801 21.8106721,31.858246 19.9629982,31.858246 C18.1162915,31.858246 16.2686175,31.11966 14.9394531,29.8640156 C10.2114391,30.8986163 7.99471402,31.4151911 7.99471402,36.9557947 L6,36.9557947 L6,36.8822747 Z" fill="#FFFFFF" mask="url(#mask-2)"></path>
            </g>
        </g>
    </g>
</svg>