<?xml version="1.0" encoding="UTF-8" standalone="no"?>
<svg width="11px" height="19px" viewBox="0 0 11 19" version="1.1" xmlns="http://www.w3.org/2000/svg" xmlns:xlink="http://www.w3.org/1999/xlink">
    <!-- Generator: Sketch 46.2 (44496) - http://www.bohemiancoding.com/sketch -->
    <title>Page 1</title>
    <desc>Created with Sketch.</desc>
    <defs></defs>
    <g id="Symbols" stroke="none" stroke-width="1" fill="none" fill-rule="evenodd" stroke-linecap="round" stroke-linejoin="round">
        <g id="despliegue-horas" transform="translate(-186.000000, -55.000000)" stroke="#0079C8">
            <path d="M191.617212,55.7671086 C189.176412,55.7671086 187.153268,57.6791325 187.015327,60.1061384 C187.005364,60.190436 187,60.2854625 187,60.382788 C187,60.4862442 187.006897,60.6011955 187.018392,60.7192122 C187.033719,60.9468158 187.064373,61.1667561 187.107288,61.3660051 C187.551766,63.7784505 191.135183,73.0925741 191.617212,73.0925741 C191.703042,73.0925741 191.77891,73.0465936 191.812629,72.969193 C191.960533,72.6427312 195.46425,64.9555521 196.124837,61.3721358 C196.170818,61.1652234 196.200705,60.9445168 196.216032,60.7230439 C196.227527,60.6011955 196.233658,60.4862442 196.233658,60.382788 C196.233658,60.2854625 196.22906,60.190436 196.219097,60.1153345 C196.079623,57.6791325 194.058012,55.7671086 191.617212,55.7671086 M191.617212,62.0472833 C190.495287,62.0472833 189.586405,61.1399341 189.586405,60.018009 C189.586405,58.8968503 190.495287,57.9887348 191.617212,57.9887348 C192.736838,57.9887348 193.64572,58.8968503 193.64572,60.018009 C193.64572,61.1399341 192.736838,62.0472833 191.617212,62.0472833" id="Page-1"></path>
        </g>
    </g>
</svg>