<?xml version="1.0" encoding="UTF-8"?>
<svg width="16px" height="19px" viewBox="0 0 16 19" version="1.1" xmlns="http://www.w3.org/2000/svg" xmlns:xlink="http://www.w3.org/1999/xlink">
    <!-- Generator: Sketch 49.1 (51147) - http://www.bohemiancoding.com/sketch -->
    <title>authorizations-2</title>
    <desc>Created with Sketch.</desc>
    <defs></defs>
    <g id="Asesor" stroke="none" stroke-width="1" fill="none" fill-rule="evenodd">
        <g id="ficha-paciente-5-asesor" transform="translate(-514.000000, -702.000000)" fill="#0079C8" fill-rule="nonzero">
            <g id="authorizations-2" transform="translate(514.000000, 702.000000)">
                <path d="M0,1.88235294 L5.76647059,1.88235294 C5.53882353,2.29588235 5.35470588,2.73352941 5.22411765,3.19647059 L1.30705882,3.19647059 L1.30705882,17.4958824 L12.7282353,17.4958824 L12.7282353,10.7552941 C13.1729412,10.6323529 13.5958824,10.4576471 13.9947059,10.2370588 L13.9947059,18.8235294 L0,18.8235294 L0,1.88235294 Z M3.10117647,15.4723529 L3.10117647,14.4905882 L7.76647059,14.4905882 L7.76647059,15.4723529 L3.10117647,15.4723529 Z M3.10117647,13.0388235 L3.10117647,12.0588235 L10.2647059,12.0588235 L10.2647059,13.0388235 L3.10117647,13.0388235 Z M3.10117647,10.6064706 L3.10117647,9.62823529 L7.26823529,9.62823529 C7.77764706,10.0452941 8.36,10.3782353 8.98705882,10.61 L3.10117647,10.6064706 Z M3.10117647,8.23529412 L3.10117647,4.82176471 L4.99470588,4.82176471 L4.99470588,4.86235294 C4.99470588,5.18411765 5.01882353,5.5 5.06647059,5.80352941 L4.07764706,5.80352941 L4.07764706,7.25588235 L5.48235294,7.25588235 C5.62764706,7.59764706 5.80235294,7.92882353 6.00411765,8.23588235 L3.10176471,8.23588235 L3.10117647,8.23529412 Z M15.9270588,4.86235294 C15.9270588,2.35294118 13.7411765,0 11.0870588,0 C8.35529412,0 6.24529412,2.35294118 6.24352941,4.86235294 C6.24352941,7.37529412 8.35352941,9.72823529 11.0870588,9.72823529 C13.5852941,9.72823529 15.9270588,7.52941176 15.9270588,4.86235294 Z M14.9141176,4.86235294 C14.9141176,7.05882353 13.2741176,8.70588235 11.0870588,8.70588235 C8.90117647,8.70588235 7.26176471,7.05882353 7.26176471,4.86235294 C7.26176471,2.66941176 8.90176471,1.02235294 11.0870588,1.02235294 C13.2747059,1.02058824 14.9141176,2.66764706 14.9141176,4.86235294 Z M12.677,5.812 C12.677,6.424 12.227,6.952 11.285,7.048 L11.285,7.72 L10.793,7.72 L10.793,7.054 C10.205,7.018 9.635,6.826 9.323,6.556 L9.593,5.95 C9.887,6.19 10.337,6.364 10.793,6.406 L10.793,5.206 C10.127,5.044 9.413,4.828 9.413,3.994 C9.413,3.382 9.857,2.848 10.793,2.758 L10.793,2.08 L11.285,2.08 L11.285,2.746 C11.729,2.77 12.179,2.902 12.503,3.112 L12.257,3.718 C11.939,3.532 11.603,3.43 11.285,3.394 L11.285,4.606 C11.951,4.768 12.677,4.978 12.677,5.812 Z M10.187,3.958 C10.187,4.246 10.445,4.378 10.793,4.48 L10.793,3.412 C10.367,3.478 10.187,3.694 10.187,3.958 Z M11.285,6.394 C11.723,6.328 11.909,6.124 11.909,5.866 C11.909,5.572 11.645,5.434 11.285,5.332 L11.285,6.394 Z" id="path-1"></path>
            </g>
        </g>
    </g>
</svg>