<?xml version="1.0" encoding="UTF-8" standalone="no"?>
<svg width="30px" height="29px" viewBox="0 0 30 29" version="1.1" xmlns="http://www.w3.org/2000/svg" xmlns:xlink="http://www.w3.org/1999/xlink">
    <!-- Generator: Sketch 46.2 (44496) - http://www.bohemiancoding.com/sketch -->
    <title>Group 8</title>
    <desc>Created with Sketch.</desc>
    <defs>
        <polygon id="path-1" points="22.7601429 22.1391429 22.7601429 0.141285714 0.000657142857 0.141285714 0.000657142857 22.1391429 22.7601429 22.1391429"></polygon>
        <polygon id="path-3" points="9.32485714 5.47619048 0.292428571 5.47619048 0.292428571 1.02109048 9.32485714 1.02109048"></polygon>
    </defs>
    <g id="ejecutivo" stroke="none" stroke-width="1" fill="none" fill-rule="evenodd">
        <g id="002-home" transform="translate(-1209.000000, -13.000000)">
            <g id="Group-8" transform="translate(1209.000000, 13.000000)">
                <g id="Page-1">
                    <g id="Group-3" transform="translate(0.000000, 2.908843)">
                        <mask id="mask-2" fill="white">
                            <use xlink:href="#path-1"></use>
                        </mask>
                        <g id="Clip-2"></g>
                        <path d="M1.40475238,20.7350476 L21.3556095,20.7350476 L21.3556095,19.9114286 C21.3556095,16.9258095 19.2428952,16.8053333 19.0008476,16.8009524 C18.6372286,16.8009524 18.3393238,16.5216667 18.3075619,16.1591429 L17.544181,7.38738095 C17.5430857,7.36766667 17.5419905,7.34685714 17.5419905,7.32714286 C17.5419905,4.14 14.9484667,1.54647619 11.7613238,1.54647619 L10.9990381,1.54647619 C7.81189524,1.54647619 5.21837143,4.14 5.21837143,7.32714286 C5.21837143,7.34685714 5.21727619,7.36766667 5.21508571,7.38738095 L4.4528,16.1591429 C4.42213333,16.5216667 4.11765714,16.8009524 3.7540381,16.8009524 C3.5185619,16.8053333 1.40475238,16.9258095 1.40475238,19.9114286 L1.40475238,20.7350476 Z M22.0576571,22.1391429 L0.701609524,22.1391429 C0.314990476,22.1391429 0.000657142857,21.8248095 0.000657142857,21.4381905 L0.000657142857,19.9114286 C0.000657142857,17.6201905 1.00937143,16.5085238 1.85599048,15.9795238 C2.30722857,15.6969524 2.75408571,15.552381 3.10237143,15.4757143 L3.81318095,7.29538095 C3.83070476,3.34814286 7.04741905,0.141285714 10.9990381,0.141285714 L11.7613238,0.141285714 C15.7129429,0.141285714 18.9296571,3.34814286 18.947181,7.29538095 L19.6579905,15.4757143 C20.0062762,15.552381 20.4542286,15.6969524 20.9054667,15.9795238 C21.7509905,16.5085238 22.7608,17.6201905 22.7608,19.9114286 L22.7608,21.4381905 C22.7608,21.8248095 22.4464667,22.1391429 22.0576571,22.1391429 L22.0576571,22.1391429 Z" id="Fill-1" fill="#FFFFFF" mask="url(#mask-2)"></path>
                    </g>
                    <g id="Group-6" transform="translate(6.571429, 22.623129)">
                        <mask id="mask-4" fill="white">
                            <use xlink:href="#path-3"></use>
                        </mask>
                        <g id="Clip-5"></g>
                        <path d="M4.80919048,5.47651905 C3.55842857,5.47651905 2.41828571,5.10194762 1.5957619,4.42180476 C0.755714286,3.72632857 0.292428571,2.7669 0.292428571,1.7231381 C0.292428571,1.33542381 0.606761905,1.02109048 0.995571429,1.02109048 C1.38328571,1.02109048 1.69761905,1.33542381 1.69761905,1.7231381 C1.69761905,3.08342381 3.00642857,4.07132857 4.80919048,4.07132857 C6.61195238,4.07132857 7.91966667,3.08342381 7.91966667,1.7231381 C7.91966667,1.33542381 8.234,1.02109048 8.62171429,1.02109048 C9.01052381,1.02109048 9.32485714,1.33542381 9.32485714,1.7231381 C9.32485714,2.7669 8.86157143,3.72632857 8.02152381,4.42180476 C7.20009524,5.10194762 6.05885714,5.47651905 4.80919048,5.47651905" id="Fill-4" fill="#FFFFFF" mask="url(#mask-4)"></path>
                    </g>
                    <path d="M11.380619,1.40431429 C10.9260952,1.40431429 10.557,1.77450476 10.557,2.22793333 C10.557,2.6813619 10.9260952,3.05045714 11.380619,3.05045714 C11.8340476,3.05045714 12.2031429,2.6813619 12.2031429,2.22793333 C12.2031429,1.77450476 11.8340476,1.40431429 11.380619,1.40431429 M11.380619,4.45564762 C10.1517619,4.45564762 9.15290476,3.45569524 9.15290476,2.22793333 C9.15290476,0.99907619 10.1517619,0.000219047619 11.380619,0.000219047619 C12.608381,0.000219047619 13.6083333,0.99907619 13.6083333,2.22793333 C13.6083333,3.45569524 12.608381,4.45564762 11.380619,4.45564762" id="Fill-7" fill="#FFFFFF"></path>
                    <path d="M19.0077476,19.7100143 L3.75327143,19.7100143 C3.36555714,19.7100143 3.05122381,19.395681 3.05122381,19.0068714 C3.05122381,18.6191571 3.36555714,18.3048238 3.75327143,18.3048238 L19.0077476,18.3048238 C19.3954619,18.3048238 19.7097952,18.6191571 19.7097952,19.0068714 C19.7097952,19.395681 19.3954619,19.7100143 19.0077476,19.7100143" id="Fill-9" fill="#FFFFFF"></path>
                    <path d="M19.0077476,17.109919 L3.75327143,17.109919 C3.53750952,17.109919 3.36336667,16.934681 3.36336667,16.7200143 C3.36336667,16.5031571 3.53750952,16.3290143 3.75327143,16.3290143 L19.0077476,16.3290143 C19.2224143,16.3290143 19.3976524,16.5031571 19.3976524,16.7200143 C19.3976524,16.934681 19.2224143,17.109919 19.0077476,17.109919" id="Fill-11" fill="#FFFFFF"></path>
                </g>
                <circle id="Oval-4" fill="#D81E05" cx="22" cy="20" r="8"></circle>
                <text id="20" font-family="Montserrat-Regular, Montserrat" font-size="8" font-weight="normal" fill="#FFFFFF">
                    <tspan x="17.064" y="22">20</tspan>
                </text>
            </g>
        </g>
    </g>
</svg>